<?xml version="1.0" encoding="UTF-8"?>
<svg version="1.1" xmlns="http://www.w3.org/2000/svg" width="3000" height="3000">
<path d="M0 0 C990 0 1980 0 3000 0 C3000 990 3000 1980 3000 3000 C2010 3000 1020 3000 0 3000 C0 2010 0 1020 0 0 Z " fill="#004D69" transform="translate(0,0)"/>
<path d="M0 0 C1.16091581 -0.00657338 1.16091581 -0.00657338 2.34528446 -0.01327956 C4.9177737 -0.02654703 7.49022878 -0.03281923 10.06274414 -0.03897095 C11.91658681 -0.04688198 13.77042798 -0.05515153 15.62426758 -0.06375122 C21.6987971 -0.08987443 27.77333314 -0.1052778 33.84790039 -0.11953735 C35.94988 -0.12490264 38.05185957 -0.13028016 40.15383911 -0.13566971 C48.91089788 -0.15729187 57.66795489 -0.17602048 66.42503357 -0.1872921 C78.91225049 -0.20347764 91.39915367 -0.23653142 103.8862524 -0.29369295 C112.69860532 -0.33263423 121.51087522 -0.35195365 130.32331181 -0.35721266 C135.56894575 -0.36083565 140.8142444 -0.37252531 146.05978394 -0.4053154 C187.341357 -0.65086654 187.341357 -0.65086654 205.64968872 4.51794052 C208.68630738 5.37217014 211.74935434 6.09998139 214.81713867 6.83274269 C257.5869751 17.54556831 297.21030485 44.17504122 323.91040039 79.15390015 C324.4015332 79.79569214 324.89266602 80.43748413 325.39868164 81.09872437 C333.63200022 91.93875968 340.64579985 103.07706628 346.91040039 115.15390015 C347.26440918 115.82630737 347.61841797 116.4987146 347.9831543 117.1914978 C368.783772 156.81125719 383.36561868 201.41043195 386.91040039 246.15390015 C386.99507568 247.12295288 387.07975098 248.09200562 387.16699219 249.09042358 C387.95464611 258.82792643 388.11241593 268.5163906 388.09790039 278.27890015 C388.09696381 279.0977066 388.09602722 279.91651306 388.09506226 280.76013184 C388.0647415 293.01255408 387.72861639 305.01981817 385.91040039 317.15390015 C385.75974121 318.22494995 385.60908203 319.29599976 385.45385742 320.39950562 C375.37471513 391.0503234 345.51386631 467.36311612 287.34790039 512.09140015 C279.86241378 517.70275403 272.07474274 522.6023212 263.91040039 527.15390015 C263.27231445 527.51934937 262.63422852 527.88479858 261.97680664 528.26132202 C231.33375907 545.76730068 196.86504519 554.67596409 161.65771484 554.54208374 C159.81882417 554.54616305 157.97993595 554.55151245 156.14105225 554.55801392 C151.20937941 554.57152904 146.27789775 554.56645601 141.34622216 554.55687666 C136.15009621 554.54920051 130.95398498 554.55634717 125.75785828 554.56103516 C117.04069118 554.56646835 108.32360073 554.55936397 99.60644531 554.54501343 C89.56738284 554.52867625 79.52850311 554.53399309 69.48944503 554.55049264 C60.82305041 554.56415895 52.15671039 554.5660026 43.49030846 554.55817664 C38.33463213 554.55353025 33.17904138 554.55279108 28.02337074 554.5627861 C23.17630181 554.57152945 18.32946595 554.5653011 13.48242188 554.54810333 C11.71692985 554.54417814 9.95141779 554.54520328 8.18593407 554.55189133 C-14.79268285 554.63083415 -37.14245985 550.75220516 -54.40209961 534.34140015 C-61.99837264 526.35989615 -66.28209694 517.77136479 -69.08959961 507.15390015 C-69.34293323 506.22559201 -69.34293323 506.22559201 -69.6013847 505.27853018 C-71.64244853 496.68856758 -71.37727438 488.01631783 -71.36375427 479.24775696 C-71.36821101 477.42395339 -71.37352649 475.60015176 -71.379623 473.77635294 C-71.39376108 468.78085465 -71.39546708 463.78541871 -71.39502609 458.78990328 C-71.396678 453.39568912 -71.40975148 448.00150037 -71.42121887 442.6072998 C-71.44403887 430.81993671 -71.45198622 419.03259165 -71.45704532 407.24520946 C-71.46030575 399.88028811 -71.46683032 392.51537197 -71.47404671 385.15045357 C-71.49360853 364.74474093 -71.51001525 344.33903313 -71.51292324 323.93331051 C-71.51311081 322.62828649 -71.51329838 321.32326247 -71.51349163 319.97869227 C-71.51385788 317.33328537 -71.51422157 314.68787848 -71.51458275 312.04247158 C-71.51476556 310.72935287 -71.51494837 309.41623416 -71.51513672 308.06332397 C-71.51531727 306.74859592 -71.51549782 305.43386787 -71.51568384 304.07929958 C-71.51922472 282.78092953 -71.54624361 261.4826871 -71.58363461 240.18434685 C-71.6217476 218.2989926 -71.64108094 196.41368851 -71.64138275 174.52830034 C-71.64196664 162.24796706 -71.65041433 149.96775447 -71.67938042 137.68745232 C-71.70393423 127.22994502 -71.7111501 116.77260244 -71.69613289 106.31507408 C-71.68898053 100.98430153 -71.68974934 95.65385399 -71.71254349 90.32311821 C-71.73325234 85.43300086 -71.73042272 80.54345594 -71.70966864 75.65334398 C-71.70619642 73.89426292 -71.7109863 72.13513954 -71.72537308 70.37611388 C-71.8769269 50.55165633 -67.22483429 33.70878014 -53.46459961 18.84140015 C-38.92882414 5.23344013 -19.564237 0.01376647 0 0 Z " fill="#E0FEF7" transform="translate(800.089599609375,1222.8460998535156)"/>
<path d="M0 0 C1.14662109 -0.00773437 2.29324219 -0.01546875 3.47460938 -0.0234375 C14.26821389 0.00099624 24.34427164 1.2177291 34.375 5.3125 C35.13119629 5.61486572 35.88739258 5.91723145 36.66650391 6.22875977 C70.48571122 20.12067113 97.88704453 44.35394817 116.9375 75.4375 C117.30842773 76.03675293 117.67935547 76.63600586 118.06152344 77.25341797 C120.20597455 80.89651288 121.25405622 84.04941985 121.6875 88.25 C123.21117187 88.19779297 123.21117187 88.19779297 124.765625 88.14453125 C146.92788256 87.61183667 164.92841368 96.07538327 181.6875 110.25 C182.50863281 110.93578125 183.32976562 111.6215625 184.17578125 112.328125 C192.56514108 119.52292787 192.56514108 119.52292787 194.6875 124.25 C194.79307924 127.3593086 194.53845716 130.25367196 193.6875 133.25 C191.6875 135.25 191.6875 135.25 189.54879761 135.49050903 C188.2230925 135.4838472 188.2230925 135.4838472 186.87060547 135.47705078 C185.86971893 135.47689972 184.8688324 135.47674866 183.83761597 135.47659302 C182.21256638 135.46110916 182.21256638 135.46110916 180.5546875 135.4453125 C179.44771515 135.4424826 178.3407428 135.43965271 177.20022583 135.43673706 C173.65420863 135.42551519 170.10844125 135.40040691 166.5625 135.375 C164.16276406 135.3649728 161.76302417 135.3558465 159.36328125 135.34765625 C153.47126849 135.32556932 147.57940209 135.29207207 141.6875 135.25 C141.83372803 135.87455078 141.97995605 136.49910156 142.13061523 137.14257812 C142.79962625 140.01075387 143.46235134 142.88034794 144.125 145.75 C144.47014648 147.22339844 144.47014648 147.22339844 144.82226562 148.7265625 C146.84393549 157.51643149 147.84787162 165.89739361 147.92578125 174.91796875 C147.933853 175.83347 147.94192474 176.74897125 147.95024109 177.69221497 C147.96401103 179.62771761 147.97476455 181.5632438 147.98266602 183.4987793 C147.99408516 185.43472664 148.01437318 187.37064508 148.04418945 189.30639648 C148.67273582 230.26725359 133.35680659 265.70375296 104.92041016 295.07519531 C99.8288436 300.23417251 94.39580167 304.78325394 88.6875 309.25 C88.1409375 309.67829102 87.594375 310.10658203 87.03125 310.54785156 C77.42863383 318.00624719 67.30451461 324.15311448 56.70947266 330.09423828 C54.2756999 331.48538538 51.92091732 332.98530949 49.5625 334.5 C41.22641487 339.55439256 31.60152857 343.19664958 22.25 345.875 C18.54864327 346.82192242 18.54864327 346.82192242 17.6484375 349.5859375 C17.17277344 350.90464844 17.17277344 350.90464844 16.6875 352.25 C14.56791434 355.41392961 12.09796773 358.30387277 9.6875 361.25 C8.83584974 362.32545135 7.98429208 363.40097602 7.1328125 364.4765625 C-3.56953842 377.7882119 -16.28790771 384.5537544 -32.125 390.5625 C-33.49688477 391.10100586 -33.49688477 391.10100586 -34.89648438 391.65039062 C-35.78271484 391.98876953 -36.66894531 392.32714844 -37.58203125 392.67578125 C-38.76696167 393.13078003 -38.76696167 393.13078003 -39.97583008 393.5949707 C-42.51896931 394.30787871 -44.68414554 394.36731386 -47.3125 394.25 C-46.78842072 389.38043006 -45.29940741 386.24641595 -42.8125 382.0625 C-39.13466703 375.40946483 -38.53374747 369.35306058 -38.57617188 361.82348633 C-38.58035726 356.84445293 -38.01394244 353.61596759 -35.3125 349.25 C-34.9825 348.92 -34.6525 348.59 -34.3125 348.25 C-33.94349457 343.60724083 -34.79868863 340.67901245 -36.75 336.5 C-39.14188163 330.75155519 -39.60032533 326.06454489 -39.625 319.875 C-39.60045441 313.93532385 -39.60045441 313.93532385 -42.10546875 308.72265625 C-44.2356534 306.91255214 -44.2356534 306.91255214 -46.5 305.63671875 C-48.3125 304.25 -48.3125 304.25 -49.0625 301.58203125 C-49.145 300.81246094 -49.2275 300.04289062 -49.3125 299.25 C-33.62619732 298.57879529 -13.42052935 299.72346636 -1.0625 310.375 C11.60223869 322.75329872 11.60223869 322.75329872 12.6875 329.25 C31.55281217 319.2300502 44.24258505 300.84693742 51.6875 281.25 C51.99236328 280.4559375 52.29722656 279.661875 52.61132812 278.84375 C65.04639228 244.46603484 59.54289578 200.87475953 44.6875 168.25 C40.18059625 157.53483205 40.18059625 157.53483205 32.6875 149.25 C32.57148437 149.97316406 32.45546875 150.69632813 32.3359375 151.44140625 C31.66800746 154.33442855 30.65511943 156.54701513 29.3125 159.1875 C25.89787607 166.47924735 24.6089537 174.08540061 23.203125 181.96484375 C22.28737444 186.70937899 21.22281596 189.71468404 17.6875 193.25 C14.34791982 194.91979009 12.38928235 194.85684957 8.6875 194.25 C1.61391994 188.69325982 -0.57925259 179.66355168 -2.75984192 171.34422302 C-3.27627458 169.38727133 -3.81987437 167.43754534 -4.36547852 165.48852539 C-5.37089383 161.44106776 -5.54152539 157.64914836 -5.5078125 153.46875 C-5.5049826 152.76979614 -5.50215271 152.07084229 -5.49923706 151.35070801 C-5.4881727 149.15028684 -5.46309606 146.95029507 -5.4375 144.75 C-5.42745235 143.24479761 -5.41832965 141.73958874 -5.41015625 140.234375 C-5.38827893 136.57278062 -5.35384696 132.91143232 -5.3125 129.25 C-7.04665695 130.34333457 -8.77946473 131.43880921 -10.51171875 132.53515625 C-11.47682373 133.14496338 -12.44192871 133.75477051 -13.4362793 134.38305664 C-16.05590291 136.08344385 -18.59527211 137.85720079 -21.125 139.6875 C-23.87771578 141.51936095 -25.37702919 142.26314484 -28.6875 142.9375 C-31.3125 142.25 -31.3125 142.25 -32.94921875 140.08203125 C-36.82362909 132.03347108 -34.28055687 122.31563735 -31.51171875 114.26171875 C-28.59097964 106.92657265 -25.16443977 101.55757328 -19.3125 96.25 C-20.70575408 92.12921149 -22.64430913 89.44623158 -25.5 86.1875 C-30.81523499 79.86228476 -34.81165888 73.01630895 -38.640625 65.71875 C-40.73330254 62.62862802 -43.31375385 60.44857193 -46.1875 58.125 C-46.75976318 57.65054443 -47.33202637 57.17608887 -47.92163086 56.68725586 C-49.71339861 55.20175226 -51.51227234 53.72523428 -53.3125 52.25 C-79.63008918 30.61482165 -79.63008918 30.61482165 -86.3125 17.25 C-86.48046875 15.2265625 -86.48046875 15.2265625 -86.5 12.875 C-86.51417969 12.10414062 -86.52835938 11.33328125 -86.54296875 10.5390625 C-86.28654645 7.9922241 -85.66875154 6.41048491 -84.3125 4.25 C-81.11602451 2.65176226 -77.7901062 2.88464838 -74.3125 3.25 C-71.875 4.375 -71.875 4.375 -69.3125 6.25 C-57.90740969 14.41024011 -57.90740969 14.41024011 -44.4140625 16.828125 C-41.11243373 15.91987025 -39.58553729 13.78595197 -37.3828125 11.265625 C-26.96024108 1.11836679 -13.71430822 -0.09158136 0 0 Z " fill="#014D69" transform="translate(904.3125,1310.75)"/>
<path d="M0 0 C1.18980469 0.27714844 2.37960937 0.55429688 3.60546875 0.83984375 C28.28503911 7.4925975 49.8847446 25.35123781 63 47 C73.04397011 64.84138587 76.44621422 84.16710509 76.4375 104.4375 C76.43860275 105.55726227 76.43860275 105.55726227 76.43972778 106.699646 C76.36521711 135.59666098 67.05126034 160.88212515 46.44873047 181.58154297 C34.95891841 192.83125785 21.43710888 201.32939746 6 206 C4.948125 206.34675781 3.89625 206.69351562 2.8125 207.05078125 C-19.93156388 214.15830121 -44.05540271 213.7908786 -67 208 C-68.16789062 207.72285156 -69.33578125 207.44570312 -70.5390625 207.16015625 C-96.12886959 200.2705928 -117.52377887 181.70796419 -130.58203125 159.05737305 C-135.87309846 149.45404182 -138.77680631 139.69449824 -141 129 C-141.36738281 127.32357422 -141.36738281 127.32357422 -141.7421875 125.61328125 C-143.57086787 115.83109378 -143.26183912 105.90659017 -143 96 C-142.97035156 94.73542969 -142.94070313 93.47085937 -142.91015625 92.16796875 C-141.74602531 67.32371085 -130.69409443 43.40824476 -113 26 C-81.32974297 -2.27865208 -40.88080358 -9.86716767 0 0 Z " fill="#E0FDF7" transform="translate(1379,1476)"/>
<path d="M0 0 C0.94230469 -0.01160156 1.88460938 -0.02320313 2.85546875 -0.03515625 C10.80095085 -0.00218744 18.40521297 1.1216902 24.5 6.625 C25.12648438 7.16640625 25.75296875 7.7078125 26.3984375 8.265625 C32.14983107 15.29221443 31.52164732 22.70989904 31.41796875 31.40234375 C31.41236523 32.75996937 31.4080987 34.1176011 31.40510559 35.47523499 C31.39371615 39.02797544 31.36430109 42.58034102 31.33099365 46.13293457 C31.30016444 49.76630493 31.28640794 53.39973836 31.27148438 57.03320312 C31.24102079 64.14746521 31.18228782 71.2607013 31.125 78.375 C44.985 78.375 58.845 78.375 73.125 78.375 C73.09019531 74.37632813 73.05539062 70.37765625 73.01953125 66.2578125 C73.00020179 63.04431436 72.98394638 59.83083292 72.96974945 56.61730957 C72.95398965 53.23889254 72.93297424 49.86070594 72.89868164 46.48242188 C72.86207548 42.59499098 72.84522214 38.707885 72.83203125 34.8203125 C72.81654739 33.62511993 72.80106354 32.42992737 72.78511047 31.19851685 C72.78349165 23.05109543 73.29675119 14.77592154 78.3125 8 C85.60090659 1.19748718 93.21890367 0.18122621 102.8125 0.125 C104.10317383 0.0940625 104.10317383 0.0940625 105.41992188 0.0625 C113.09413809 0.01623494 120.51639493 1.2508833 126.4375 6.5 C127.05238281 7.01820312 127.66726563 7.53640625 128.30078125 8.0703125 C134.91995876 16.43287081 134.69945318 25.44956132 134.64257812 35.65991211 C134.6480057 37.30017211 134.65513191 38.94042724 134.66381836 40.58067322 C134.6819807 45.01467728 134.67501328 49.44830709 134.66230202 53.8823173 C134.65213574 58.5354514 134.66157789 63.18855463 134.66784668 67.84169006 C134.67511328 75.65517902 134.66556211 83.46851649 134.64648438 91.28198242 C134.62472515 100.29741375 134.63176406 109.31248306 134.65379 118.3279056 C134.67198131 126.0861723 134.67448389 133.84433044 134.66403532 141.6026116 C134.65781988 146.22842528 134.65691068 150.85406918 134.67018127 155.47987175 C134.68179335 159.83112596 134.67361699 164.18191662 134.65060425 168.53312111 C134.64534529 170.12373971 134.64678236 171.71439776 134.65565491 173.30500031 C134.75104255 192.15282286 134.75104255 192.15282286 128.44709015 199.26913357 C120.07781081 207.17133756 109.8409567 207.70004948 98.88671875 207.58203125 C90.63467202 207.12786876 84.76789152 205.02440642 78.75 199.2734375 C73.91985289 193.63052525 72.99575645 186.69778819 73.01147461 179.4831543 C73.01158791 177.74191536 73.01158791 177.74191536 73.01170349 175.96549988 C73.01686478 174.72262711 73.02202606 173.47975433 73.02734375 172.19921875 C73.0287587 170.91892288 73.03017365 169.63862701 73.03163147 168.3195343 C73.03543603 164.9280296 73.04524857 161.53656823 73.05633545 158.14508057 C73.06659402 154.67940874 73.07119351 151.21372965 73.07617188 147.74804688 C73.08634117 140.95699308 73.10591804 134.16605801 73.125 127.375 C59.265 127.375 45.405 127.375 31.125 127.375 C31.17720703 133.96662109 31.17720703 133.96662109 31.23046875 140.69140625 C31.2497788 144.20823664 31.26604112 147.72505194 31.28025055 151.24190521 C31.29605396 154.94726808 31.31715211 158.6524231 31.35131836 162.35766602 C31.38405369 165.93032309 31.40188264 169.50277933 31.40963173 173.07557487 C31.41514995 174.43466284 31.42592554 175.79374054 31.44219017 177.15274239 C31.55393087 186.8813562 31.21307855 194.09003038 24.125 201.375 C14.17626073 208.20256616 1.86534577 208.946427 -9.8515625 206.83984375 C-16.88066001 204.89675486 -21.95651921 202.34062013 -25.6875 195.875 C-28.45522359 190.64409199 -29.0014499 186.5095773 -29.02217102 180.58334351 C-29.02584771 179.90094467 -29.0295244 179.21854583 -29.0333125 178.51546824 C-29.0443227 176.22954278 -29.04818866 173.94366282 -29.05200195 171.65771484 C-29.0582687 170.01819719 -29.06491569 168.37868095 -29.07191467 166.73916626 C-29.09293528 161.35476669 -29.10331634 155.97036692 -29.11328125 150.5859375 C-29.11732979 148.73005788 -29.12144674 146.87417842 -29.12563133 145.0182991 C-29.14467993 136.29698472 -29.15891072 127.57567877 -29.1672433 118.85434759 C-29.1770098 108.79907815 -29.20331535 98.74402919 -29.24374419 88.68883741 C-29.27394521 80.90946977 -29.28871602 73.13016518 -29.29202431 65.35074008 C-29.29437057 60.70804533 -29.30327541 56.06558622 -29.32848549 51.42295456 C-29.35184058 47.05130391 -29.35596972 42.68004277 -29.34572411 38.30834579 C-29.34523041 36.70964763 -29.3515015 35.11092981 -29.36528015 33.51229095 C-29.5191802 14.58734303 -29.5191802 14.58734303 -23.18347645 7.4765377 C-16.24830595 0.89193316 -9.20767184 -0.11244104 0 0 Z " fill="#E0FEF7" transform="translate(1812.875,1478.625)"/>
<path d="M0 0 C1.8130505 -0.00202549 3.62610021 -0.00494087 5.43914795 -0.00869751 C9.22822878 -0.013103 13.01709645 -0.00675033 16.80615234 0.00732422 C21.6249718 0.02436583 26.44328798 0.01459548 31.26208878 -0.00339317 C35.00455397 -0.0143213 38.74690324 -0.01074283 42.48937225 -0.0030098 C44.26409721 -0.00103007 46.03883322 -0.00338727 47.81354523 -0.01044846 C67.64537737 -0.07202736 84.01957331 2.76503649 98.94287109 16.93896484 C112.06264897 30.45672288 117.72266186 47.26359578 117.671875 65.6484375 C117.68798828 66.79957031 117.70410156 67.95070313 117.72070312 69.13671875 C117.73225455 89.62895005 109.45192741 106.23046406 95.75 121.07421875 C91.96427153 124.7547881 87.85219998 127.64667442 83.359375 130.3984375 C82.74964844 130.78644531 82.13992188 131.17445313 81.51171875 131.57421875 C68.44180969 139.01401314 53.39213281 138.93439858 38.859375 138.6484375 C37.05340558 138.62830985 35.24741409 138.61007033 33.44140625 138.59375 C29.08016916 138.5503236 24.72002676 138.48165605 20.359375 138.3984375 C20.36603683 138.96505096 20.37269867 139.53166443 20.37956238 140.115448 C20.44632639 146.05346966 20.49134469 151.99138337 20.52416992 157.9296875 C20.53918537 160.14099464 20.55960391 162.35227235 20.58569336 164.56347656 C20.62239654 167.75593359 20.6391743 170.94799425 20.65234375 174.140625 C20.66782761 175.11707977 20.68331146 176.09353455 20.69926453 177.09957886 C20.70139993 185.96015934 19.38829842 194.29890136 13.1015625 200.9296875 C4.19443462 208.43883566 -6.65006935 207.80026612 -17.640625 207.3984375 C-24.6192055 206.79717562 -29.65187941 204.35457691 -34.640625 199.3984375 C-39.43337671 193.21424175 -40.76054924 188.40090327 -40.78779602 180.60005188 C-40.79147271 179.91694748 -40.7951494 179.23384307 -40.7989375 178.53003854 C-40.80994767 176.2417791 -40.81381364 173.95356513 -40.81762695 171.6652832 C-40.82389364 170.02414303 -40.83054063 168.38300428 -40.83753967 166.74186707 C-40.85855887 161.35266097 -40.86894039 155.96345466 -40.87890625 150.57421875 C-40.88295467 148.71707838 -40.88707162 146.85993815 -40.89125633 145.00279808 C-40.91030368 136.27668033 -40.9245354 127.55057102 -40.9328683 118.82443649 C-40.94263791 108.76066711 -40.96895213 98.69711784 -41.00936919 88.63342601 C-41.03955675 80.8489785 -41.0543397 73.06459398 -41.05764931 65.28008908 C-41.05999687 60.63351399 -41.06891894 55.98717416 -41.09411049 51.340662 C-41.11744234 46.96655215 -41.12160399 42.59283164 -41.11134911 38.21867561 C-41.11085487 36.61794487 -41.11714216 35.01719463 -41.13090515 33.41652298 C-41.20854856 23.84690884 -40.90419234 15.89080591 -34.8515625 8.09375 C-34.24570313 7.57554688 -33.63984375 7.05734375 -33.015625 6.5234375 C-32.42523437 5.98976563 -31.83484375 5.45609375 -31.2265625 4.90625 C-21.53461359 -0.7449468 -10.83823191 -0.04289538 0 0 Z " fill="#E0FEF7" transform="translate(1652.640625,1478.6015625)"/>
<path d="M0 0 C4.6456962 3.91927825 8.2707486 7.87924121 9.53515625 13.9609375 C10.05651761 22.22250978 6.84881021 30.67567575 2.1796875 37.3984375 C0.02919398 39.72350983 -1.75644292 41.06041045 -4.5625 42.5 C-5.33851563 42.91894531 -6.11453125 43.33789062 -6.9140625 43.76953125 C-16.22707432 46.59712528 -24.14882423 43.63629153 -32.9375 40.3125 C-43.34663617 36.44831952 -53.078492 33.34866886 -64.25 33.25 C-64.92611328 33.21712891 -65.60222656 33.18425781 -66.29882812 33.15039062 C-70.08219089 33.10978868 -71.82143723 33.60156743 -74.88671875 35.87109375 C-77.16870416 39.00502038 -77.56622487 40.36866216 -77.4375 44.1875 C-77.42203125 45.56421875 -77.42203125 45.56421875 -77.40625 46.96875 C-76.67067584 51.23508011 -75.11265363 53.77961221 -71.6875 56.42578125 C-59.28875858 63.52335624 -46.13078194 68.67071998 -32.625 73.25 C-15.29405876 79.16298806 -1.59791116 86.27351763 7.31640625 103.046875 C15.09448922 119.69369464 14.19417728 140.61875572 8.0625 157.6875 C2.34277857 172.84200308 -9.79335922 184.88967275 -24.25 191.9375 C-52.43397555 204.31336748 -88.26876099 199.33071864 -116.36279297 188.77636719 C-127.26487884 184.29835111 -135.70143726 178.61266174 -140.4375 167.4375 C-143.03895002 159.18223194 -143.25509378 149.85161455 -140.125 141.6953125 C-137.35571912 137.01304154 -133.07539794 133.40013265 -127.9375 131.6875 C-118.4228273 130.26659425 -110.25874055 133.60141932 -101.48632812 136.77587891 C-96.95140293 138.39785311 -92.38088932 139.91295446 -87.8125 141.4375 C-86.94834473 141.73084229 -86.08418945 142.02418457 -85.19384766 142.32641602 C-82.78196764 143.13748035 -80.3644851 143.92290418 -77.9375 144.6875 C-77.27669434 144.89648926 -76.61588867 145.10547852 -75.93505859 145.32080078 C-70.25818455 146.93678197 -64.68798212 147.05457087 -58.8125 147.0625 C-57.84957031 147.08699219 -56.88664062 147.11148437 -55.89453125 147.13671875 C-49.95217003 147.16124019 -46.40456357 146.74447249 -41.9375 142.6875 C-40.94931644 139.72294931 -40.67419993 137.48111721 -40.5625 134.375 C-40.48902344 132.98861328 -40.48902344 132.98861328 -40.4140625 131.57421875 C-41.12838069 127.63480724 -43.02074956 125.28530236 -45.9375 122.6875 C-48.29025535 121.10030193 -50.74117167 119.88094089 -53.3125 118.6875 C-54.37295532 118.17896484 -54.37295532 118.17896484 -55.45483398 117.66015625 C-64.29045332 113.48321055 -73.30637007 109.88806728 -82.5703125 106.78515625 C-101.69717069 100.37434389 -115.92470367 94.13075957 -125.9375 75.6875 C-132.68906093 59.9420714 -131.99821981 39.49476923 -125.9375 23.6875 C-119.40270483 7.88632325 -105.36007585 -4.77867633 -89.71875 -11.28125 C-63.69611579 -20.9300919 -22.78719077 -16.47401824 0 0 Z " fill="#DFFDF7" transform="translate(2258.9375,1488.3125)"/>
<path d="M0 0 C1.25683594 -0.01740234 1.25683594 -0.01740234 2.5390625 -0.03515625 C11.20369865 0.005082 18.84119049 1.97349823 25.13281918 8.16689968 C31.5512392 15.7572279 31.57584422 25.65417303 31.50170898 35.10131836 C31.50550176 36.44306502 31.51100963 37.78480775 31.51808167 39.12654114 C31.53193039 42.73832028 31.52094144 46.34961737 31.50437045 49.96136928 C31.49041106 53.7620552 31.49699243 57.56271619 31.50050354 61.36341858 C31.50319746 67.74422879 31.48980202 74.12485002 31.46655273 80.50561523 C31.43995954 87.85439843 31.43819533 95.20286568 31.4499411 102.55168051 C31.46076849 109.6557209 31.45449236 116.7596484 31.44038582 123.86367989 C31.43466769 126.8709541 31.43467549 129.87814455 31.43945122 132.88541985 C31.44426892 136.43559341 31.4339242 139.98542679 31.41249657 143.53553581 C31.40439375 145.43917091 31.41072688 147.34285088 31.41769409 149.24649048 C31.27825866 165.601409 26.36490522 180.34667591 15 192.375 C12.86350918 194.03671508 10.83795104 195.50796776 8.5625 196.9375 C7.64887695 197.51491943 7.64887695 197.51491943 6.71679688 198.10400391 C0.48163186 201.90245618 -5.98646726 204.36097877 -13 206.375 C-14.0621875 206.69339844 -15.124375 207.01179688 -16.21875 207.33984375 C-41.70738589 213.92440802 -69.86430922 208.53414315 -92.32495117 195.4074707 C-103.2355341 188.70782256 -109.6090517 178.93879319 -112.6875 166.625 C-113.61416605 156.98767307 -113.68209613 149.60155126 -108 141.375 C-100.09584517 133.47084517 -90.80854437 133.0625 -80.30957031 133.0625 C-72.65046048 133.19147085 -65.94665327 134.0155136 -59.92578125 139.140625 C-56.37753978 142.91946497 -53.95865636 146.9156626 -52.01953125 151.7109375 C-50.65101624 153.94460568 -49.44620307 154.48270173 -47 155.375 C-43.60230877 155.89984661 -40.39555537 155.92993704 -37 155.375 C-34.17575712 153.18477082 -32.58491397 151.54482793 -31 148.375 C-30.9036159 146.68699737 -30.8709681 144.99519396 -30.86869812 143.30444336 C-30.86468994 142.23071976 -30.86068176 141.15699615 -30.85655212 140.05073547 C-30.85708084 138.8673912 -30.85760956 137.68404694 -30.8581543 136.46484375 C-30.85294266 134.60118416 -30.85294266 134.60118416 -30.84762573 132.69987488 C-30.84025692 129.99287394 -30.83458913 127.28592234 -30.83133507 124.57891846 C-30.82542302 120.2913409 -30.8088781 116.00384629 -30.78999329 111.71630859 C-30.78365541 110.24761968 -30.77732979 108.77893072 -30.77101612 107.3102417 C-30.76785031 106.57454704 -30.7646845 105.83885239 -30.76142275 105.08086395 C-30.71938871 95.09868344 -30.68640658 85.11654038 -30.67407227 75.13427734 C-30.66566906 68.4026812 -30.64309064 61.67128941 -30.6047166 54.93979549 C-30.58502258 51.38026267 -30.57252879 47.82103484 -30.57755089 44.26144409 C-30.58309795 40.280868 -30.55769053 36.30080282 -30.5300293 32.3203125 C-30.53993141 30.56958687 -30.53993141 30.56958687 -30.55003357 28.78349304 C-30.46202257 21.04467436 -29.55787086 13.57977463 -24.38639355 7.46800232 C-17.67228977 0.93900205 -8.97931996 -0.12432905 0 0 Z " fill="#DFFDF7" transform="translate(2073,1478.625)"/>
<path d="M0 0 C6.49668004 4.17476191 10.27732357 9.93245648 12.1640625 17.390625 C12.58255468 21.91852205 12.54348838 26.4224694 12.50463867 30.96679688 C12.50379119 32.32756532 12.50426991 33.68833513 12.50596619 35.04910278 C12.50682283 38.72218756 12.48925119 42.3949752 12.46824431 46.06799126 C12.44942195 49.91433051 12.44772271 53.76067746 12.44416809 57.60705566 C12.43486389 64.88129423 12.41027226 72.15539667 12.38011962 79.42957544 C12.34652486 87.71495288 12.33007687 96.000337 12.31503332 104.28576565 C12.28372113 121.32079735 12.23099246 138.35569676 12.1640625 155.390625 C12.7704808 155.38396317 13.37689911 155.37730133 14.00169373 155.37043762 C20.34506906 155.30378005 26.68834397 155.25869867 33.03198242 155.22583008 C35.39563034 155.21079559 37.75925061 155.19036258 40.12280273 155.16430664 C43.53115691 155.12768855 46.93914042 155.11084469 50.34765625 155.09765625 C51.39489365 155.08217239 52.44213104 155.06668854 53.52110291 155.05073547 C60.56963176 155.0491389 67.77810127 155.45857886 73.3203125 160.2578125 C73.76375 160.92039062 74.2071875 161.58296875 74.6640625 162.265625 C75.128125 162.92304687 75.5921875 163.58046875 76.0703125 164.2578125 C79.92673706 171.77784039 79.37217843 184.58437679 76.9765625 192.515625 C75.31250364 196.56354492 73.37695721 199.39679129 70.1640625 202.390625 C64.77087317 204.36906538 59.9225506 204.68278406 54.26635742 204.6652832 C52.97218651 204.6729496 52.97218651 204.6729496 51.65187073 204.68077087 C48.81601918 204.69460491 45.98041242 204.69371451 43.14453125 204.69140625 C41.16066906 204.69529708 39.17680769 204.69963254 37.19294739 204.70439148 C33.03965553 204.71184078 28.8864487 204.71157213 24.7331543 204.70629883 C19.43074011 204.70051139 14.12867605 204.71742406 8.82631969 204.7406435 C4.72974132 204.75543167 0.63324623 204.75624554 -3.46335411 204.75313377 C-5.41723002 204.75364461 -7.37111088 204.75883737 -9.32496071 204.76894569 C-33.86731716 204.88032545 -33.86731716 204.88032545 -41.7734375 197.828125 C-42.48371094 197.22871094 -43.19398437 196.62929687 -43.92578125 196.01171875 C-50.03531503 187.62828897 -49.26607375 177.06447604 -49.22412109 167.15991211 C-49.22819292 165.53758899 -49.23353822 163.91526865 -49.24005127 162.29295349 C-49.25365695 157.91284579 -49.24845458 153.53295152 -49.23891401 149.15284038 C-49.23128357 144.55530294 -49.23837227 139.95778296 -49.24307251 135.36024475 C-49.24851969 127.64271791 -49.24136517 119.92527739 -49.22705078 112.20776367 C-49.21072048 103.30083997 -49.21601972 94.39412227 -49.23253 85.48720354 C-49.24616758 77.82151405 -49.24805361 70.15588637 -49.24021399 62.49018866 C-49.2355507 57.91978014 -49.23487563 53.34946829 -49.24482346 48.77906609 C-49.2535242 44.48204648 -49.24741478 40.18529117 -49.23014069 35.88829994 C-49.22619263 34.31660779 -49.2272809 32.74489319 -49.23392868 31.17321014 C-49.27087834 21.54592916 -49.0789852 13.3015258 -43.6484375 5.078125 C-33.06202721 -5.03777816 -12.98252423 -5.85243949 0 0 Z " fill="#DFFDF7" transform="translate(1517.8359375,1481.609375)"/>
<path d="M0 0 C1.06798828 -0.01160156 2.13597656 -0.02320313 3.23632812 -0.03515625 C15.98145425 0.01155771 26.48749291 3.67299498 35.859375 12.55078125 C37.88194913 14.75204144 39.745481 17.00208934 41.5625 19.375 C42.04460937 19.98859375 42.52671875 20.6021875 43.0234375 21.234375 C50.5654633 31.93033887 53.39838371 48.51336199 51.22998047 61.34228516 C47.83916034 77.85632569 41.84942187 90.828328 27.57421875 100.68359375 C22.51319332 103.52590764 17.1891112 105.05416421 11.5625 106.375 C10.74652344 106.56707031 9.93054687 106.75914063 9.08984375 106.95703125 C-3.6250612 109.05980533 -16.34408766 106.86502354 -27.4375 100.375 C-28.406875 99.859375 -29.37625 99.34375 -30.375 98.8125 C-42.40235788 89.23970495 -48.42380535 76.33612195 -50.4375 61.375 C-51.58515452 43.89120072 -48.7173992 28.57879905 -37.1875 14.9375 C-26.47414078 3.85974081 -15.09560538 -0.163392 0 0 Z " fill="#014E69" transform="translate(1345.4375,1526.625)"/>
<path d="M0 0 C29.45714286 0 29.45714286 0 37 6 C42.68977461 12.16392249 43.39245989 17.53769688 43.25390625 25.703125 C42.7337771 32.45680201 40.86670809 38.13329191 36 43 C25.77761241 50.6667907 11.77171407 48 0 48 C0 32.16 0 16.32 0 0 Z " fill="#034F6A" transform="translate(1673,1520)"/>
<path d="M0 0 C0.33 0.66 0.66 1.32 1 2 C0.01 3.485 0.01 3.485 -1 5 C-1.04022391 7.3329866 -1.04320247 9.66706666 -1 12 C-2 13 -2 13 -5.4375 13.125 C-9 13 -9 13 -11 12 C-11.33 12.99 -11.66 13.98 -12 15 C-12.61875 15.144375 -13.2375 15.28875 -13.875 15.4375 C-16.7073715 16.1872454 -17.44987517 17.59730651 -19 20 C-19.66 19.67 -20.32 19.34 -21 19 C-15.04379365 11.43400816 -7.70303713 5.71398999 0 0 Z " fill="#D7F4F0" transform="translate(1281,1490)"/>
<path d="M0 0 C3.82524236 1.450954 5.19090966 3.38181932 7 7 C7 7.66 7 8.32 7 9 C6.34 9 5.68 9 5 9 C4.67 9.99 4.34 10.98 4 12 C3.67 11.01 3.34 10.02 3 9 C2.34 9 1.68 9 1 9 C1 9.66 1 10.32 1 11 C-0.65 11 -2.3 11 -4 11 C-2.7874262 7.27566618 -1.49140021 3.62197194 0 0 Z " fill="#D4F3EF" transform="translate(937,1460)"/>
<path d="M0 0 C0 0.33 0 0.66 0 1 C-1.84464844 1.07347656 -1.84464844 1.07347656 -3.7265625 1.1484375 C-5.35939566 1.22351029 -6.99220712 1.29905615 -8.625 1.375 C-9.43324219 1.4059375 -10.24148438 1.436875 -11.07421875 1.46875 C-15.74099892 1.69639781 -19.58868914 2.331912 -24 4 C-27.39364821 4.57519461 -30.55928176 5 -34 5 C-34 4.34 -34 3.68 -34 3 C-35.32 2.67 -36.64 2.34 -38 2 C-25.28663202 -0.03996736 -12.8539779 -0.23105878 0 0 Z " fill="#B6DDDD" transform="translate(1358,1472)"/>
<path d="M0 0 C4.66666667 4.66666667 9.33333333 9.33333333 14 14 C13.34 14.66 12.68 15.32 12 16 C11.67 15.01 11.34 14.02 11 13 C10.34 13 9.68 13 9 13 C9 13.99 9 14.98 9 16 C7.35 15.67 5.7 15.34 4 15 C4 14.34 4 13.68 4 13 C4.66 12.67 5.32 12.34 6 12 C5.53980469 11.60167969 5.07960938 11.20335937 4.60546875 10.79296875 C2.7325678 8.70133484 2.12610698 6.98578008 1.3125 4.3125 C1.06113281 3.50425781 0.80976562 2.69601562 0.55078125 1.86328125 C0.36902344 1.24839844 0.18726563 0.63351562 0 0 Z " fill="#D1F0ED" transform="translate(822,1335)"/>
<path d="M0 0 C0.33 0 0.66 0 1 0 C1.33 3.3 1.66 6.6 2 10 C3.32 10 4.64 10 6 10 C5.814375 11.010625 5.62875 12.02125 5.4375 13.0625 C4.83269405 16.98514992 4.83269405 16.98514992 5.5625 20.8125 C5.706875 21.864375 5.85125 22.91625 6 24 C5.34 24.66 4.68 25.32 4 26 C0.46778198 17.09266761 -0.13928431 9.56418957 0 0 Z " fill="#D5F3F0" transform="translate(1960,1630)"/>
<path d="M0 0 C2.5625 0.1875 2.5625 0.1875 4.5625 2.1875 C4.00694444 6.74305556 4.00694444 6.74305556 2.5625 8.1875 C0.125 8.375 0.125 8.375 -2.4375 8.1875 C-3.0975 7.5275 -3.7575 6.8675 -4.4375 6.1875 C-3.71780303 0.28598485 -3.71780303 0.28598485 0 0 Z " fill="#DDF8F4" transform="translate(884.4375,1332.8125)"/>
<path d="M0 0 C-0.33 1.98 -0.66 3.96 -1 6 C-1.7425 5.79375 -2.485 5.5875 -3.25 5.375 C-6.43806012 4.94026453 -7.29581607 5.39439079 -10 7 C-11.66140763 7.67966676 -13.32700041 8.34938905 -15 9 C-13.50314027 4.50942081 -9.89704176 2.3347533 -6 0 C-3 -1 -3 -1 0 0 Z " fill="#D5F4F0" transform="translate(1488,1481)"/>
<path d="M0 0 C2.475 0.99 2.475 0.99 5 2 C4.06414062 2.33644531 4.06414062 2.33644531 3.109375 2.6796875 C0.27668841 4.45273948 0.06744557 5.93696227 -0.75 9.125 C-0.99234375 10.03507812 -1.2346875 10.94515625 -1.484375 11.8828125 C-1.65453125 12.58148437 -1.8246875 13.28015625 -2 14 C-2.33 13.34 -2.66 12.68 -3 12 C-4.32 12.33 -5.64 12.66 -7 13 C-6.65986985 7.55791766 -3.29703472 4.06331802 0 0 Z " fill="#E0FBF5" transform="translate(1968,1617)"/>
<path d="M0 0 C1.00289062 0.10183594 2.00578125 0.20367188 3.0390625 0.30859375 C3.80992187 0.39238281 4.58078125 0.47617188 5.375 0.5625 C5.045 1.2225 4.715 1.8825 4.375 2.5625 C-5.24048382 5.47410445 -15.69845654 4.76103087 -25.625 4.5625 C-25.625 4.2325 -25.625 3.9025 -25.625 3.5625 C-20.015 3.5625 -14.405 3.5625 -8.625 3.5625 C-8.295 2.5725 -7.965 1.5825 -7.625 0.5625 C-4.89657939 -0.80171031 -3.01546682 -0.31557211 0 0 Z " fill="#B3DADB" transform="translate(2217.625,1682.4375)"/>
<path d="M0 0 C1.32 0.33 2.64 0.66 4 1 C3.71125 1.53109375 3.4225 2.0621875 3.125 2.609375 C2.75375 3.31578125 2.3825 4.0221875 2 4.75 C1.62875 5.44609375 1.2575 6.1421875 0.875 6.859375 C-0.25224649 9.23167757 -0.25224649 9.23167757 0 13 C-3.75 14.125 -3.75 14.125 -6 13 C-4.31326082 8.50202887 -2.18326108 4.27113698 0 0 Z " fill="#D3F2EE" transform="translate(1039,1562)"/>
<path d="M0 0 C1 3 1 3 0 6 C-0.66 6 -1.32 6 -2 6 C-2 6.66 -2 7.32 -2 8 C-2.7425 8.2475 -3.485 8.495 -4.25 8.75 C-7.20124062 10.09147301 -8.84814974 11.60905526 -11 14 C-11.33 13.34 -11.66 12.68 -12 12 C-12.33 11.67 -12.66 11.34 -13 11 C-10.24881027 8.14784917 -7.39684775 5.65641299 -4.25 3.25 C-3.45078125 2.63640625 -2.6515625 2.0228125 -1.828125 1.390625 C-1.22484375 0.93171875 -0.6215625 0.4728125 0 0 Z " fill="#D8F3EF" transform="translate(998,1615)"/>
<path d="M0 0 C0.99 0.33 1.98 0.66 3 1 C3 1.66 3 2.32 3 3 C3.66 3 4.32 3 5 3 C5 2.34 5 1.68 5 1 C7.475 1.99 7.475 1.99 10 3 C6.80009492 5.74277578 3.99500618 7.6302836 0 9 C-1.125 2.25 -1.125 2.25 0 0 Z " fill="#DCF9F4" transform="translate(1402,1665)"/>
<path d="M0 0 C0.99 0.33 1.98 0.66 3 1 C3 1.66 3 2.32 3 3 C1 5 1 5 -1 7 C-1.33 7.99 -1.66 8.98 -2 10 C-7.75 9.25 -7.75 9.25 -10 7 C-9.36191406 6.57847656 -8.72382812 6.15695312 -8.06640625 5.72265625 C-7.24011719 5.17480469 -6.41382813 4.62695312 -5.5625 4.0625 C-4.73878906 3.51722656 -3.91507813 2.97195313 -3.06640625 2.41015625 C-1.10014075 1.16197019 -1.10014075 1.16197019 0 0 Z " fill="#DBF7F2" transform="translate(901,1685)"/>
<path d="M0 0 C5.44567686 1.02862785 10.11817117 2.24614784 15 5 C14.67 5.66 14.34 6.32 14 7 C13.34 7 12.68 7 12 7 C12 6.34 12 5.68 12 5 C11.278125 5.185625 10.55625 5.37125 9.8125 5.5625 C6.81920623 6.02812347 4.91222993 5.74672562 2 5 C0.8553125 4.7215625 0.8553125 4.7215625 -0.3125 4.4375 C-0.869375 4.293125 -1.42625 4.14875 -2 4 C-2 3.34 -2 2.68 -2 2 C-1.34 2 -0.68 2 0 2 C0 1.34 0 0.68 0 0 Z " fill="#D6F3EF" transform="translate(1722,1480)"/>
<path d="M0 0 C2.31 0.33 4.62 0.66 7 1 C7 1.66 7 2.32 7 3 C7.99 3 8.98 3 10 3 C11.125 5.3125 11.125 5.3125 12 8 C11.01 9.485 11.01 9.485 10 11 C8.32742645 9.5484451 6.66208242 8.08855591 5 6.625 C3.6078125 5.40683594 3.6078125 5.40683594 2.1875 4.1640625 C1.465625 3.44992187 0.74375 2.73578125 0 2 C0 1.34 0 0.68 0 0 Z " fill="#E0F9F4" transform="translate(1084,1418)"/>
<path d="M0 0 C2.97 0.495 2.97 0.495 6 1 C6 3.31 6 5.62 6 8 C5.34 8 4.68 8 4 8 C5.32 9.32 6.64 10.64 8 12 C7.67 12.66 7.34 13.32 7 14 C6.34 13.67 5.68 13.34 5 13 C4.67 13.66 4.34 14.32 4 15 C2.68 10.05 1.36 5.1 0 0 Z " fill="#D6F5F2" transform="translate(1239,1609)"/>
<path d="M0 0 C1.485 0.99 1.485 0.99 3 2 C3.66 1.67 4.32 1.34 5 1 C4.50941094 3.55106312 3.83941756 5.27098286 2.5 7.53125 C0.54988559 12.04088958 0.440636 16.01315394 0.3125 20.875 C0.27833984 21.75414062 0.24417969 22.63328125 0.20898438 23.5390625 C0.1270686 25.69227705 0.06184421 27.84611551 0 30 C-0.33 30 -0.66 30 -1 30 C-1.02945031 26.68751922 -1.04694801 23.37507289 -1.0625 20.0625 C-1.07087891 19.13630859 -1.07925781 18.21011719 -1.08789062 17.25585938 C-1.10837786 11.41699697 -0.75429787 5.79086947 0 0 Z " fill="#B0D7D8" transform="translate(866,1655)"/>
<path d="M0 0 C1.21816406 0.03480469 1.21816406 0.03480469 2.4609375 0.0703125 C3.68683594 0.09738281 3.68683594 0.09738281 4.9375 0.125 C5.87722656 0.15980469 5.87722656 0.15980469 6.8359375 0.1953125 C4.8559375 1.1853125 4.8559375 1.1853125 2.8359375 2.1953125 C5.8059375 2.6903125 5.8059375 2.6903125 8.8359375 3.1953125 C7.8459375 4.5153125 6.8559375 5.8353125 5.8359375 7.1953125 C1.92382017 6.03945965 -1.0385666 4.83996288 -4.1640625 2.1953125 C-2.1640625 0.1953125 -2.1640625 0.1953125 0 0 Z " fill="#D6F3EF" transform="translate(1295.1640625,1672.8046875)"/>
<path d="M0 0 C1.32 0 2.64 0 4 0 C4.061875 0.78375 4.12375 1.5675 4.1875 2.375 C4.455625 3.24125 4.72375 4.1075 5 5 C7.47636012 6.37466625 7.47636012 6.37466625 10 7 C10 7.99 10 8.98 10 10 C9.34 9.67 8.68 9.34 8 9 C7.67 9.66 7.34 10.32 7 11 C5.82141137 9.9296491 4.6574639 8.84316035 3.5 7.75 C2.8503125 7.14671875 2.200625 6.5434375 1.53125 5.921875 C0 4 0 4 0 0 Z " fill="#D3F3EF" transform="translate(1970,1661)"/>
<path d="M0 0 C0.66 0 1.32 0 2 0 C1.67 1.32 1.34 2.64 1 4 C1.33 3.67 1.66 3.34 2 3 C3.66014616 2.63557767 5.32706064 2.30027117 7 2 C7 1.34 7 0.68 7 0 C7.99 0.33 8.98 0.66 10 1 C7.69 3.64 5.38 6.28 3 9 C2.34 8.67 1.68 8.34 1 8 C1 7.34 1 6.68 1 6 C0.34 6 -0.32 6 -1 6 C-0.67 4.02 -0.34 2.04 0 0 Z " fill="#E1FAF4" transform="translate(1114,1697)"/>
<path d="M0 0 C0.37125 0.66 0.7425 1.32 1.125 2 C2.8893691 4.31940353 2.8893691 4.31940353 6 4.3125 C9.04730176 4.10436419 9.04730176 4.10436419 12 3 C12 4.65 12 6.3 12 8 C10.35 8 8.7 8 7 8 C7 7.34 7 6.68 7 6 C6.34 6 5.68 6 5 6 C5 6.66 5 7.32 5 8 C2.08482708 6.92598892 0.22189824 6.22189824 -2 4 C-2 3.01 -2 2.02 -2 1 C-1.34 0.67 -0.68 0.34 0 0 Z " fill="#CFEFEC" transform="translate(870,1448)"/>
<path d="M0 0 C3.25748651 3.16700077 6.27175362 6.36233816 9 10 C9 10.33 9 10.66 9 11 C6.6875 11.3125 6.6875 11.3125 4 11 C1.75756777 8.13896577 1 6.65923696 1 3 C0.34 2.67 -0.32 2.34 -1 2 C-0.67 1.34 -0.34 0.68 0 0 Z M0 7 C0.99 7.495 0.99 7.495 2 8 C1.34 8.66 0.68 9.32 0 10 C0 9.01 0 8.02 0 7 Z " fill="#D7F4EF" transform="translate(1113,1290)"/>
<path d="M0 0 C1.75 2.25 1.75 2.25 2.75 5.25 C1.76 6.735 1.76 6.735 0.75 8.25 C-0.58631236 6.9405332 -1.91897925 5.62734515 -3.25 4.3125 C-3.9925 3.58160156 -4.735 2.85070313 -5.5 2.09765625 C-7.25 0.25 -7.25 0.25 -7.25 -0.75 C-2.85 -2.21666667 -2.85 -2.21666667 0 0 Z " fill="#0B5570" transform="translate(1427.25,1497.75)"/>
<path d="M0 0 C0.66 0.33 1.32 0.66 2 1 C2.625 3.0625 2.625 3.0625 3 5 C2.01 5.33 1.02 5.66 0 6 C-0.66 6.66 -1.32 7.32 -2 8 C-2 7.01 -2 6.02 -2 5 C-4.7839183 6.39195915 -4.97898997 8.15575779 -6 11 C-6.99 10.34 -7.98 9.68 -9 9 C-8.06725891 7.87105124 -7.12859878 6.74699124 -6.1875 5.625 C-5.66542969 4.99851562 -5.14335938 4.37203125 -4.60546875 3.7265625 C-3 2 -3 2 0 0 Z " fill="#D8F3F0" transform="translate(1624,1482)"/>
<path d="M0 0 C3 2 3 2 3.51171875 4.3828125 C3.56972656 5.28773437 3.62773437 6.19265625 3.6875 7.125 C3.75324219 8.03507812 3.81898438 8.94515625 3.88671875 9.8828125 C3.92410156 10.58148437 3.96148438 11.28015625 4 12 C3.01 12.495 3.01 12.495 2 13 C2.99 13.33 3.98 13.66 5 14 C3.02 14.99 3.02 14.99 1 16 C0.93941406 15.33613281 0.87882812 14.67226562 0.81640625 13.98828125 C0.29346819 8.4349315 0.29346819 8.4349315 -0.625 2.9375 C-0.74875 2.298125 -0.8725 1.65875 -1 1 C-0.67 0.67 -0.34 0.34 0 0 Z " fill="#CDEDEA" transform="translate(2218,1611)"/>
<path d="M0 0 C1.32 0.33 2.64 0.66 4 1 C0.66666667 4.33333333 -2.66666667 7.66666667 -6 11 C-6 10.34 -6 9.68 -6 9 C-6.66 8.67 -7.32 8.34 -8 8 C-7.34 8 -6.68 8 -6 8 C-5.67 6.02 -5.34 4.04 -5 2 C-3.35 2 -1.7 2 0 2 C0 1.34 0 0.68 0 0 Z " fill="#115A74" transform="translate(746,1239)"/>
<path d="M0 0 C1.52519276 0.08937803 3.04681929 0.24537146 4.5625 0.4375 C5.80193359 0.59025391 5.80193359 0.59025391 7.06640625 0.74609375 C7.70449219 0.82988281 8.34257813 0.91367188 9 1 C8.67 1.99 8.34 2.98 8 4 C6.35 4 4.7 4 3 4 C2.67 4.99 2.34 5.98 2 7 C1.01 6.67 0.02 6.34 -1 6 C-1.042721 4.33388095 -1.04063832 2.66617115 -1 1 C-0.67 0.67 -0.34 0.34 0 0 Z " fill="#DAF8F2" transform="translate(985,1224)"/>
<path d="M0 0 C4.75 0.875 4.75 0.875 7 2 C7.309375 2.639375 7.61875 3.27875 7.9375 3.9375 C8.95345922 6.31971493 8.95345922 6.31971493 12 8 C12 8.66 12 9.32 12 10 C12.66 10 13.32 10 14 10 C13.67 10.66 13.34 11.32 13 12 C7.90789714 8.43679155 3.77339973 4.95258714 0 0 Z " fill="#D5F1EE" transform="translate(744,1754)"/>
<path d="M0 0 C-2.39060851 1.59373901 -4.30828179 2.65297076 -6.9375 3.6875 C-7.60652344 3.95949219 -8.27554687 4.23148438 -8.96484375 4.51171875 C-11.32830338 5.0787676 -12.7192799 4.76024003 -15 4 C-15 3.34 -15 2.68 -15 2 C-13.06524329 1.46906676 -11.12706845 0.95057683 -9.1875 0.4375 C-8.10855469 0.14746094 -7.02960938 -0.14257812 -5.91796875 -0.44140625 C-3 -1 -3 -1 0 0 Z " fill="#D7F4F0" transform="translate(1733,1610)"/>
<path d="M0 0 C0.66 0 1.32 0 2 0 C1.67 3.96 1.34 7.92 1 12 C-3 13 -3 13 -5 12 C-3.35 8.04 -1.7 4.08 0 0 Z " fill="#D2F1EE" transform="translate(1045,1548)"/>
<path d="M0 0 C7 8.20689655 7 8.20689655 7 13 C5.109375 12.73828125 5.109375 12.73828125 3 12 C1.953125 10.29296875 1.953125 10.29296875 1.25 8.1875 C1.00765625 7.50042969 0.7653125 6.81335937 0.515625 6.10546875 C0 4 0 4 0 0 Z " fill="#D0EFEC" transform="translate(1145,1336)"/>
<path d="M0 0 C2.97 0.495 2.97 0.495 6 1 C0.85714286 6.57142857 0.85714286 6.57142857 -3 7 C-3.66 5.35 -4.32 3.7 -5 2 C-3.35 2 -1.7 2 0 2 C0 1.34 0 0.68 0 0 Z " fill="#D3F1EE" transform="translate(920,1633)"/>
<path d="M0 0 C3.057952 1.73559438 5.63379989 3.38472619 8 6 C7.67 6.99 7.34 7.98 7 9 C5.35 8.67 3.7 8.34 2 8 C0 2.25 0 2.25 0 0 Z " fill="#D7F3F0" transform="translate(2008,1615)"/>
<path d="M0 0 C2.25245881 2.68841859 3.88213958 4.64641875 5 8 C2.69 7.67 0.38 7.34 -2 7 C-2.6875 5.1875 -2.6875 5.1875 -3 3 C-1.5625 1.25 -1.5625 1.25 0 0 Z " fill="#D6F4F0" transform="translate(1756,1502)"/>
<path d="M0 0 C1.1725131 0.95117134 2.33787015 1.91117009 3.5 2.875 C4.47453125 3.67550781 4.47453125 3.67550781 5.46875 4.4921875 C6.22671875 5.23855469 6.22671875 5.23855469 7 6 C7 6.66 7 7.32 7 8 C6.01 8 5.02 8 4 8 C4 7.34 4 6.68 4 6 C3.34 6 2.68 6 2 6 C1.67 6.66 1.34 7.32 1 8 C0.01 7.34 -0.98 6.68 -2 6 C-1.34 4.02 -0.68 2.04 0 0 Z " fill="#D8F5F1" transform="translate(858,1616)"/>
<path d="M0 0 C4.59306496 1.4859916 7.43569245 3.85014682 11 7 C8.5502519 7.87491004 7.36551707 8.12900603 4.875 7.25 C3 6 3 6 1 3 C0.01 3.33 -0.98 3.66 -2 4 C-1.34 2.68 -0.68 1.36 0 0 Z " fill="#D1F0ED" transform="translate(1086,1266)"/>
<path d="M0 0 C2.97 0.33 5.94 0.66 9 1 C5.80009492 3.74277578 2.99500618 5.6302836 -1 7 C-1.33 6.34 -1.66 5.68 -2 5 C-1.0625 2.375 -1.0625 2.375 0 0 Z " fill="#D8F5F0" transform="translate(1057,1747)"/>
<path d="M0 0 C2.475 0.495 2.475 0.495 5 1 C5 1.66 5 2.32 5 3 C5.99 3.33 6.98 3.66 8 4 C8.33 4.99 8.66 5.98 9 7 C7.02 7.99 7.02 7.99 5 9 C3.35 6.03 1.7 3.06 0 0 Z " fill="#D9F5F1" transform="translate(1015,1377)"/>
<path d="M0 0 C-1.25541557 2.51083114 -2.50063488 2.87125446 -5 4 C-5 4.66 -5 5.32 -5 6 C-7.92879371 5.37240135 -10.36095629 4.41377341 -13 3 C-4.57142857 -0.42857143 -4.57142857 -0.42857143 0 0 Z " fill="#125D75" transform="translate(891,1312)"/>
<path d="M0 0 C1.31602523 0.61754259 2.62773556 1.24428742 3.9375 1.875 C4.66839844 2.22304687 5.39929687 2.57109375 6.15234375 2.9296875 C8 4 8 4 9 6 C8.01 6.33 7.02 6.66 6 7 C5.01 6.34 4.02 5.68 3 5 C3 5.66 3 6.32 3 7 C2.34 7 1.68 7 1 7 C1 6.34 1 5.68 1 5 C0.34 4.67 -0.32 4.34 -1 4 C-0.67 2.68 -0.34 1.36 0 0 Z " fill="#D3F2ED" transform="translate(2242,1568)"/>
<path d="M0 0 C0.95465783 2.16967689 1.14401212 3.56328793 0.3984375 5.82421875 C-0.35870385 7.5684743 -1.17609198 9.28627131 -2 11 C-2.99 10.34 -3.98 9.68 -5 9 C-4.67 7.02 -4.34 5.04 -4 3 C-3.01 3 -2.02 3 -1 3 C-0.67 2.01 -0.34 1.02 0 0 Z " fill="#0E5872" transform="translate(1046,1542)"/>
<path d="M0 0 C1.32 0 2.64 0 4 0 C5.875 2.25 5.875 2.25 7 5 C6.1875 7.3125 6.1875 7.3125 5 9 C4.34 8.67 3.68 8.34 3 8 C3 7.01 3 6.02 3 5 C2.34 5 1.68 5 1 5 C0.67 3.35 0.34 1.7 0 0 Z " fill="#D7F3EF" transform="translate(1137,1327)"/>
<path d="M0 0 C0.66 0.66 1.32 1.32 2 2 C-1 9.57142857 -1 9.57142857 -4 12 C-4.24012841 7.91781703 -3.54828113 4.78468721 -2 1 C-1.34 0.67 -0.68 0.34 0 0 Z " fill="#D3F2EE" transform="translate(1670,1666)"/>
<path d="M0 0 C0.99 0 1.98 0 3 0 C2.5020163 3.73487777 2.12508244 5.81237635 0 9 C-0.99 8.34 -1.98 7.68 -3 7 C-2.67 5.35 -2.34 3.7 -2 2 C-1.34 2 -0.68 2 0 2 C0 1.34 0 0.68 0 0 Z " fill="#D9F6F2" transform="translate(1156,1633)"/>
<path d="M0 0 C2 1 2 1 2.75 2.875 C3 5 3 5 1 8 C1.66 8 2.32 8 3 8 C2.67 8.99 2.34 9.98 2 11 C0.68 10.67 -0.64 10.34 -2 10 C-1.34 6.7 -0.68 3.4 0 0 Z " fill="#D5F4F0" transform="translate(2132,1515)"/>
<path d="M0 0 C2.64 1.65 5.28 3.3 8 5 C7.01 5.66 6.02 6.32 5 7 C1.3125 6.125 1.3125 6.125 -2 5 C-2 4.01 -2 3.02 -2 2 C-1.34 2 -0.68 2 0 2 C0 1.34 0 0.68 0 0 Z " fill="#D3F1EC" transform="translate(1075,1257)"/>
<path d="M0 0 C2.64 0.99 5.28 1.98 8 3 C8 3.66 8 4.32 8 5 C3.545 5.495 3.545 5.495 -1 6 C-0.67 4.02 -0.34 2.04 0 0 Z " fill="#D5F4F0" transform="translate(1045,1241)"/>
<path d="M0 0 C4.60209225 -0.17700355 6.78370866 -0.10814567 11 2 C7.04 2.66 3.08 3.32 -1 4 C-1.33 3.34 -1.66 2.68 -2 2 C-1.34 2 -0.68 2 0 2 C0 1.34 0 0.68 0 0 Z " fill="#D8F5F1" transform="translate(1819,1682)"/>
<path d="M0 0 C3 1 3 1 4.1875 3.0625 C4.455625 3.701875 4.72375 4.34125 5 5 C3.02 5.99 3.02 5.99 1 7 C-0.32 5.68 -1.64 4.36 -3 3 C-2.01 2.01 -1.02 1.02 0 0 Z " fill="#D5F2EF" transform="translate(2131,1665)"/>
<path d="M0 0 C0.33 2.31 0.66 4.62 1 7 C-1.38564077 6.42415568 -3.66682784 5.77772405 -6 5 C-4.87312259 1.61936778 -3.78825335 0 0 0 Z " fill="#D6F4F0" transform="translate(964,1639)"/>
<path d="M0 0 C0.33 0 0.66 0 1 0 C1.33 3.3 1.66 6.6 2 10 C3.32 10 4.64 10 6 10 C5.67 11.65 5.34 13.3 5 15 C3.0625 14.625 3.0625 14.625 1 14 C-0.38226016 11.23547967 -0.09525387 8.9538637 -0.0625 5.875 C-0.05347656 4.77929688 -0.04445313 3.68359375 -0.03515625 2.5546875 C-0.02355469 1.71164062 -0.01195312 0.86859375 0 0 Z " fill="#B8DEDF" transform="translate(1960,1630)"/>
<path d="M0 0 C2.99324263 1.0975223 3.84610901 1.67682892 5.25 4.625 C5.4975 5.40875 5.745 6.1925 6 7 C5.01 7.66 4.02 8.32 3 9 C1.68 6.36 0.36 3.72 -1 1 C-0.67 0.67 -0.34 0.34 0 0 Z " fill="#D7F4F1" transform="translate(1249,1632)"/>
<path d="M0 0 C1.32 0.33 2.64 0.66 4 1 C4.33 2.98 4.66 4.96 5 7 C2.36 6.34 -0.28 5.68 -3 5 C-2.505 4.54625 -2.01 4.0925 -1.5 3.625 C0.22609337 2.12364481 0.22609337 2.12364481 0 0 Z " fill="#D2F1EF" transform="translate(2222,1521)"/>
<path d="M0 0 C2.6855594 2.6855594 3.06049974 5.37621328 4 9 C3.01 9.33 2.02 9.66 1 10 C0.01 9.34 -0.98 8.68 -2 8 C-1.34 5.36 -0.68 2.72 0 0 Z " fill="#CEEEEB" transform="translate(1156,1358)"/>
<path d="M0 0 C0.66 0.99 1.32 1.98 2 3 C1.67 3.99 1.34 4.98 1 6 C0.01 6 -0.98 6 -2 6 C-2 6.99 -2 7.98 -2 9 C-3.32 8.34 -4.64 7.68 -6 7 C-4.02 4.69 -2.04 2.38 0 0 Z " fill="#CDEDEA" transform="translate(910,1676)"/>
<path d="M0 0 C0.66 0 1.32 0 2 0 C2 1.98 2 3.96 2 6 C1.34 6 0.68 6 0 6 C-0.0825 6.78375 -0.165 7.5675 -0.25 8.375 C-1 11 -1 11 -3.0625 12.3125 C-4.0215625 12.6528125 -4.0215625 12.6528125 -5 13 C-4.731875 12.34 -4.46375 11.68 -4.1875 11 C-2.74294953 7.35060933 -1.37128822 3.67754567 0 0 Z " fill="#165D75" transform="translate(2267,1643)"/>
<path d="M0 0 C0.99 0.33 1.98 0.66 3 1 C3 1.66 3 2.32 3 3 C0.13399811 4.99027909 -2.51616122 6.51947051 -6 7 C-6.66 6.67 -7.32 6.34 -8 6 C-6.7391988 4.96680187 -5.46596742 3.94875621 -4.1875 2.9375 C-3.47980469 2.36902344 -2.77210937 1.80054688 -2.04296875 1.21484375 C-1.36878906 0.81394531 -0.69460938 0.41304687 0 0 Z " fill="#0F5A74" transform="translate(1320,1532)"/>
<path d="M0 0 C-0.33 0.99 -0.66 1.98 -1 3 C-1.66 3 -2.32 3 -3 3 C-2.67 3.99 -2.34 4.98 -2 6 C-4.97 6 -7.94 6 -11 6 C-7.92832129 2.92832129 -4.55956968 0 0 0 Z " fill="#CFEFEB" transform="translate(2169,1478)"/>
<path d="M0 0 C1.67299959 0.65061095 3.33859237 1.32033324 5 2 C5.7425 2.28875 6.485 2.5775 7.25 2.875 C9 4 9 4 9.75 6.125 C9.87375 7.053125 9.87375 7.053125 10 8 C7 8 7 8 5.17578125 6.50390625 C4.56089844 5.86324219 3.94601562 5.22257812 3.3125 4.5625 C2.68988281 3.92441406 2.06726563 3.28632812 1.42578125 2.62890625 C0 1 0 1 0 0 Z " fill="#CEEDEA" transform="translate(987,1345)"/>
<path d="M0 0 C2 0.75 2 0.75 5 2.75 C4.67 3.74 4.34 4.73 4 5.75 C0.51460083 5.10455571 -2.02819057 3.64865603 -5 1.75 C-2 -0.25 -2 -0.25 0 0 Z " fill="#CFF1EE" transform="translate(781,1225.25)"/>
<path d="M0 0 C6.15234375 0.5859375 6.15234375 0.5859375 8 1 C8.33 1.66 8.66 2.32 9 3 C5.7 3.66 2.4 4.32 -1 5 C-0.67 3.35 -0.34 1.7 0 0 Z " fill="#D2F1ED" transform="translate(1370,1681)"/>
<path d="M0 0 C3.91402949 1.26941497 5.79072873 2.51167694 8 6 C6.35 6.33 4.7 6.66 3 7 C3 6.01 3 5.02 3 4 C1.35 4.33 -0.3 4.66 -2 5 C-1.67 4.360625 -1.34 3.72125 -1 3.0625 C0.07271225 1.23205433 0.07271225 1.23205433 0 0 Z " fill="#D1F1ED" transform="translate(1830,1481)"/>
<path d="M0 0 C0.66 0.99 1.32 1.98 2 3 C0.7934375 3.4640625 0.7934375 3.4640625 -0.4375 3.9375 C-2.89080405 4.76335345 -2.89080405 4.76335345 -4 6 C-5.66617115 6.04063832 -7.33388095 6.042721 -9 6 C-9 5.34 -9 4.68 -9 4 C-6.03 2.68 -3.06 1.36 0 0 Z " fill="#CFEFEB" transform="translate(1298,1481)"/>
<path d="M0 0 C0.33 0.99 0.66 1.98 1 3 C3.01508358 3.73323796 3.01508358 3.73323796 5 4 C5 4.99 5 5.98 5 7 C1.27566618 5.7874262 -2.37802806 4.49140021 -6 3 C-6 2.67 -6 2.34 -6 2 C-4.02 2 -2.04 2 0 2 C0 1.34 0 0.68 0 0 Z " fill="#D1F0ED" transform="translate(1063,1401)"/>
<path d="M0 0 C0.66 0 1.32 0 2 0 C2 0.66 2 1.32 2 2 C2.66 2.33 3.32 2.66 4 3 C3.34 3 2.68 3 2 3 C2 4.65 2 6.3 2 8 C0.68 7.34 -0.64 6.68 -2 6 C-1.125 1.125 -1.125 1.125 0 0 Z " fill="#C7E7E6" transform="translate(882,1333)"/>
<path d="M0 0 C0.66 0 1.32 0 2 0 C1.50168276 3.68754757 0.89932357 5.60490662 -2 8 C-3.4606285 5.35261084 -4 4.10551666 -4 1 C-2.68 1.33 -1.36 1.66 0 2 C0 1.34 0 0.68 0 0 Z " fill="#D5F4F0" transform="translate(1126,1689)"/>
<path d="M0 0 C0.99 0 1.98 0 3 0 C3 0.66 3 1.32 3 2 C4.65 2 6.3 2 8 2 C8 2.99 8 3.98 8 5 C3.545 4.01 3.545 4.01 -1 3 C-0.67 2.01 -0.34 1.02 0 0 Z " fill="#D7F3EF" transform="translate(1797,1680)"/>
<path d="M0 0 C0.66 0 1.32 0 2 0 C1.34 2.31 0.68 4.62 0 7 C-0.66 7 -1.32 7 -2 7 C-2 7.66 -2 8.32 -2 9 C-2.99 9 -3.98 9 -5 9 C-3.50079488 5.88626628 -1.91847864 2.87771795 0 0 Z " fill="#CEEEEB" transform="translate(1389,1609)"/>
<path d="M0 0 C0.33 0 0.66 0 1 0 C0.67 2.64 0.34 5.28 0 8 C-2.49064888 8.68707555 -4.37886292 9 -7 9 C-5.85793642 7.49712782 -4.71125043 5.99776716 -3.5625 4.5 C-2.92441406 3.6646875 -2.28632812 2.829375 -1.62890625 1.96875 C-0.82259766 0.99421875 -0.82259766 0.99421875 0 0 Z " fill="#135E76" transform="translate(1757,1588)"/>
<path d="M0 0 C0.66 0.33 1.32 0.66 2 1 C2 3.31 2 5.62 2 8 C0.35 7.67 -1.3 7.34 -3 7 C-2.625 4.0625 -2.625 4.0625 -2 1 C-1.34 0.67 -0.68 0.34 0 0 Z " fill="#D7F5F0" transform="translate(932,1475)"/>
<path d="M0 0 C1.2065625 0.0309375 1.2065625 0.0309375 2.4375 0.0625 C1.75 2 1.75 2 0.4375 4.0625 C-2.1875 4.8125 -2.1875 4.8125 -4.5625 5.0625 C-3.43829114 0.08386076 -3.43829114 0.08386076 0 0 Z " fill="#0C556F" transform="translate(991.5625,1616.9375)"/>
<path d="M0 0 C3.125 0.375 3.125 0.375 6 1 C5.67 2.32 5.34 3.64 5 5 C0.25 4.25 0.25 4.25 -2 2 C-1.34 1.34 -0.68 0.68 0 0 Z " fill="#D1F1EE" transform="translate(848,1322)"/>
<path d="M0 0 C-0.33 0.99 -0.66 1.98 -1 3 C-1.66 3 -2.32 3 -3 3 C-3.33 3.99 -3.66 4.98 -4 6 C-4.66 6 -5.32 6 -6 6 C-6.33 6.99 -6.66 7.98 -7 9 C-7 8.34 -7 7.68 -7 7 C-7.66 6.67 -8.32 6.34 -9 6 C-7.8803014 4.99406757 -6.7540588 3.9954151 -5.625 3 C-4.68527344 2.1646875 -4.68527344 2.1646875 -3.7265625 1.3125 C-2 0 -2 0 0 0 Z " fill="#D0EFEC" transform="translate(757,1235)"/>
<path d="M0 0 C-1.5 2.0625 -1.5 2.0625 -4 4 C-6.82406647 4.05928384 -9.20225927 3.55954815 -12 3 C-7.85930434 0.85826087 -4.68855996 -0.12671784 0 0 Z " fill="#155F76" transform="translate(1024,1768)"/>
<path d="M0 0 C2.475 0.99 2.475 0.99 5 2 C4.67 3.65 4.34 5.3 4 7 C2.68 7.33 1.36 7.66 0 8 C0 5.36 0 2.72 0 0 Z " fill="#D4F3EF" transform="translate(2097,1643)"/>
<path d="M0 0 C0.66 0.33 1.32 0.66 2 1 C1.34 4.3 0.68 7.6 0 11 C-0.99 11.33 -1.98 11.66 -3 12 C-3.20375803 8.3323555 -2.80451285 6.18443445 -1 3 C-0.67 2.01 -0.34 1.02 0 0 Z " fill="#D7F5F1" transform="translate(1452,1601)"/>
<path d="M0 0 C1 2 1 2 0.44140625 3.9453125 C0.15136719 4.66460938 -0.13867188 5.38390625 -0.4375 6.125 C-0.72496094 6.84945313 -1.01242187 7.57390625 -1.30859375 8.3203125 C-1.53675781 8.87460938 -1.76492188 9.42890625 -2 10 C-2.66 9.67 -3.32 9.34 -4 9 C-4.125 6.125 -4.125 6.125 -4 3 C-2 1 -2 1 0 0 Z " fill="#D0F0ED" transform="translate(1767,1566)"/>
<path d="M0 0 C4.0369867 1.79421631 6.64480474 3.20551875 9 7 C8.01 7.495 8.01 7.495 7 8 C6.21625 7.360625 5.4325 6.72125 4.625 6.0625 C2.20460719 4.01857687 2.20460719 4.01857687 0 3 C0 2.01 0 1.02 0 0 Z " fill="#D9F5F0" transform="translate(1515,1481)"/>
<path d="M0 0 C0.33 0.66 0.66 1.32 1 2 C-1 5 -1 5 -2.9453125 5.51171875 C-3.66460938 5.56972656 -4.38390625 5.62773438 -5.125 5.6875 C-7.043125 5.8421875 -7.043125 5.8421875 -9 6 C-6.22719294 2.91910327 -3.93673644 1.31224548 0 0 Z " fill="#C9ECE8" transform="translate(1902,1480)"/>
<path d="M0 0 C1.65 0.33 3.3 0.66 5 1 C4.01 2.98 3.02 4.96 2 7 C1.01 6.67 0.02 6.34 -1 6 C-0.67 4.02 -0.34 2.04 0 0 Z " fill="#DAF6F3" transform="translate(875,1411)"/>
<path d="M0 0 C1.65 0.99 3.3 1.98 5 3 C4.67 3.66 4.34 4.32 4 5 C2.02 5 0.04 5 -2 5 C-2.33 4.01 -2.66 3.02 -3 2 C-2.01 2 -1.02 2 0 2 C0 1.34 0 0.68 0 0 Z " fill="#D8F5F1" transform="translate(859,1370)"/>
<path d="M0 0 C0.66 0.33 1.32 0.66 2 1 C2 1.99 2 2.98 2 4 C1.01 4.33 0.02 4.66 -1 5 C-1.66 4.67 -2.32 4.34 -3 4 C-3.33 4.99 -3.66 5.98 -4 7 C-5.32 6.34 -6.64 5.68 -8 5 C-6.71475739 4.13619741 -5.42157581 3.28419631 -4.125 2.4375 C-3.04605469 1.72400391 -3.04605469 1.72400391 -1.9453125 0.99609375 C-1.30335937 0.66738281 -0.66140625 0.33867188 0 0 Z " fill="#19637B" transform="translate(1072,1744)"/>
<path d="M0 0 C0.99 0 1.98 0 3 0 C2.67 2.64 2.34 5.28 2 8 C0.68 6.35 -0.64 4.7 -2 3 C-1.34 2.67 -0.68 2.34 0 2 C0 1.34 0 0.68 0 0 Z " fill="#D6F4F0" transform="translate(740,1744)"/>
<path d="M0 0 C2.475 0.99 2.475 0.99 5 2 C0.25 6 0.25 6 -2 6 C-2 4.68 -2 3.36 -2 2 C-1.34 2 -0.68 2 0 2 C0 1.34 0 0.68 0 0 Z " fill="#D6F2EE" transform="translate(1407,1666)"/>
<path d="M0 0 C0.99 0 1.98 0 3 0 C4.0625 1.8125 4.0625 1.8125 5 4 C4.67 4.99 4.34 5.98 4 7 C3.01 6.67 2.02 6.34 1 6 C1 4.68 1 3.36 1 2 C0.34 1.67 -0.32 1.34 -1 1 C-0.67 0.67 -0.34 0.34 0 0 Z " fill="#DAF6F1" transform="translate(1523,1489)"/>
<path d="M0 0 C2.475 0.99 2.475 0.99 5 2 C2.06279492 3.52299523 -0.9168649 4.80100302 -4 6 C-2.84826645 3.53199953 -1.95216435 1.95216435 0 0 Z " fill="#CCEBE9" transform="translate(1477,1484)"/>
<path d="M0 0 C2.1640625 0.0234375 2.1640625 0.0234375 4.625 0.375 C5.85089844 0.54128906 5.85089844 0.54128906 7.1015625 0.7109375 C7.72804688 0.80632812 8.35453125 0.90171875 9 1 C8.34 1.66 7.68 2.32 7 3 C4.8359375 2.9765625 4.8359375 2.9765625 2.375 2.625 C1.55773438 2.51414062 0.74046875 2.40328125 -0.1015625 2.2890625 C-0.72804688 2.19367188 -1.35453125 2.09828125 -2 2 C-1.34 1.34 -0.68 0.68 0 0 Z " fill="#D6F3EF" transform="translate(1318,1683)"/>
<path d="M0 0 C0.99 0 1.98 0 3 0 C1.92598892 2.91517292 1.22189824 4.77810176 -1 7 C-1.66 6.67 -2.32 6.34 -3 6 C-2.67 4.68 -2.34 3.36 -2 2 C-1.34 2 -0.68 2 0 2 C0 1.34 0 0.68 0 0 Z " fill="#D5F2EE" transform="translate(2261,1651)"/>
<path d="M0 0 C0.66 0.66 1.32 1.32 2 2 C2.99 2 3.98 2 5 2 C3.35 3.65 1.7 5.3 0 7 C-0.66 6.34 -1.32 5.68 -2 5 C-1.46428571 1.46428571 -1.46428571 1.46428571 0 0 Z " fill="#145D74" transform="translate(2123,1619)"/>
<path d="M0 0 C0.33 0.99 0.66 1.98 1 3 C1.99 3 2.98 3 4 3 C4 3.99 4 4.98 4 6 C1.36 5.34 -1.28 4.68 -4 4 C-3.34 3.67 -2.68 3.34 -2 3 C-2 2.34 -2 1.68 -2 1 C-1.34 0.67 -0.68 0.34 0 0 Z " fill="#CBEBE8" transform="translate(2188,1594)"/>
<path d="M0 0 C0.66 0.66 1.32 1.32 2 2 C1.01 4.64 0.02 7.28 -1 10 C-1.33 10 -1.66 10 -2 10 C-2.1953125 3.9453125 -2.1953125 3.9453125 -2 2 C-1.34 1.34 -0.68 0.68 0 0 Z " fill="#D6F3F0" transform="translate(956,1586)"/>
<path d="M0 0 C1.65 0 3.3 0 5 0 C5 0.99 5 1.98 5 3 C3.02 3.99 3.02 3.99 1 5 C0.01 4.34 -0.98 3.68 -2 3 C-1.34 3 -0.68 3 0 3 C0 2.01 0 1.02 0 0 Z " fill="#0B5571" transform="translate(1275,1489)"/>
<path d="M0 0 C2.31 0.33 4.62 0.66 7 1 C7.33 2.65 7.66 4.3 8 6 C7.01 5.34 6.02 4.68 5 4 C4.67 4.66 4.34 5.32 4 6 C2.62437146 4.71034824 1.29233607 3.37310707 0 2 C0 1.34 0 0.68 0 0 Z " fill="#CCEEEA" transform="translate(1084,1418)"/>
<path d="M0 0 C0.66 0 1.32 0 2 0 C1.67 1.98 1.34 3.96 1 6 C-0.98 6 -2.96 6 -5 6 C-3.38405168 3.95880212 -1.7143618 1.95927063 0 0 Z " fill="#0C5671" transform="translate(885,1407)"/>
<path d="M0 0 C1.875 0.1875 1.875 0.1875 4 1 C5.25 3.5625 5.25 3.5625 6 6 C3.69 5.01 1.38 4.02 -1 3 C-0.67 2.01 -0.34 1.02 0 0 Z " fill="#D3F2EF" transform="translate(960,1324)"/>
<path d="M0 0 C1.65 0.33 3.3 0.66 5 1 C2.6875 3.5 2.6875 3.5 0 6 C-0.99 6 -1.98 6 -3 6 C-2 4 -1 2 0 0 Z " fill="#D6F3EE" transform="translate(867,1317)"/>
<path d="M0 0 C1.62580966 0.11398665 3.25067157 0.24155659 4.875 0.375 C5.77992187 0.44460938 6.68484375 0.51421875 7.6171875 0.5859375 C10 1 10 1 12 3 C8.52128379 4.15957207 7.65780355 3.77456651 4.3125 2.5625 C3.50425781 2.27503906 2.69601562 1.98757813 1.86328125 1.69140625 C1.24839844 1.46324219 0.63351562 1.23507812 0 1 C0 0.67 0 0.34 0 0 Z " fill="#C0E4E4" transform="translate(1997,1681)"/>
<path d="M0 0 C2.31 0 4.62 0 7 0 C6.67 0.99 6.34 1.98 6 3 C4.02 3.33 2.04 3.66 0 4 C0 2.66666667 0 1.33333333 0 0 Z " fill="#D2F0ED" transform="translate(1271,1659)"/>
<path d="M0 0 C1.32 0 2.64 0 4 0 C3.67 1.32 3.34 2.64 3 4 C1.68 4.33 0.36 4.66 -1 5 C-0.67 3.35 -0.34 1.7 0 0 Z " fill="#DAF5F2" transform="translate(2181,1520)"/>
<path d="M0 0 C-2.76223278 2.76223278 -5.20706617 2.57856291 -9 3 C-8.34 2.34 -7.68 1.68 -7 1 C-7.33 0.34 -7.66 -0.32 -8 -1 C-4.59745511 -2.2151946 -3.06748874 -1.86240388 0 0 Z " fill="#DAF6F1" transform="translate(1938,1484)"/>
<path d="M0 0 C0 1.32 0 2.64 0 4 C-1.98 4.99 -1.98 4.99 -4 6 C-4 5.34 -4 4.68 -4 4 C-4.99 3.67 -5.98 3.34 -7 3 C-2.25 0 -2.25 0 0 0 Z " fill="#C9EAE9" transform="translate(899,1440)"/>
<path d="M0 0 C2.12508244 3.18762365 2.5020163 5.26512223 3 9 C2.01 9 1.02 9 0 9 C-1.10844919 5.67465243 -0.84454356 3.37817425 0 0 Z " fill="#C9E9E6" transform="translate(1171,1397)"/>
<path d="M0 0 C2.97 0.99 5.94 1.98 9 3 C9 3.66 9 4.32 9 5 C5.37 4.01 1.74 3.02 -2 2 C-1.34 1.34 -0.68 0.68 0 0 Z " fill="#BFE3E2" transform="translate(934,1313)"/>
<path d="M0 0 C1.65 0.33 3.3 0.66 5 1 C3.71937515 2.7074998 2.38232443 4.37373596 1 6 C0.34 6 -0.32 6 -1 6 C-0.67 4.02 -0.34 2.04 0 0 Z " fill="#D1F0EC" transform="translate(1095,1722)"/>
<path d="M0 0 C0.33 1.32 0.66 2.64 1 4 C-2.75 7 -2.75 7 -5 7 C-3.70700306 4.11562221 -2.34058637 2.12780579 0 0 Z " fill="#0A546E" transform="translate(1427,1655)"/>
<path d="M0 0 C0 1.32 0 2.64 0 4 C-5.53846154 4.36923077 -5.53846154 4.36923077 -7.875 2.5 C-8.24625 2.005 -8.6175 1.51 -9 1 C-2.25 0 -2.25 0 0 0 Z " fill="#C5E7E5" transform="translate(2038,1634)"/>
<path d="M0 0 C0.598125 0.350625 1.19625 0.70125 1.8125 1.0625 C0.4925 2.3825 -0.8275 3.7025 -2.1875 5.0625 C-2.1875 4.4025 -2.1875 3.7425 -2.1875 3.0625 C-3.1775 2.7325 -4.1675 2.4025 -5.1875 2.0625 C-5.1875 1.4025 -5.1875 0.7425 -5.1875 0.0625 C-2.1875 -0.9375 -2.1875 -0.9375 0 0 Z " fill="#08546E" transform="translate(1966.1875,1616.9375)"/>
<path d="M0 0 C0.99 0.33 1.98 0.66 3 1 C2.34 2.98 1.68 4.96 1 7 C0.01 6.34 -0.98 5.68 -2 5 C-1.125 1.125 -1.125 1.125 0 0 Z " fill="#D6F4EF" transform="translate(948,1602)"/>
<path d="M0 0 C-0.75 5.75 -0.75 5.75 -3 8 C-3.33 5.69 -3.66 3.38 -4 1 C-2 0 -2 0 0 0 Z " fill="#CAEDE9" transform="translate(1398,1560)"/>
<path d="M0 0 C1.89213369 2.38573379 3.02391783 4.07175348 4 7 C0 7 0 7 -2 6 C-1.34 4.02 -0.68 2.04 0 0 Z " fill="#CEEEE9" transform="translate(1442,1525)"/>
<path d="M0 0 C2.31 0.66 4.62 1.32 7 2 C7 2.99 7 3.98 7 5 C4.11424181 4.60196439 3.17810487 4.20990931 1.25 1.9375 C0.8375 1.298125 0.425 0.65875 0 0 Z " fill="#0D5873" transform="translate(1744,1489)"/>
<path d="M0 0 C2.475 0.99 2.475 0.99 5 2 C5 2.99 5 3.98 5 5 C3.02 4.34 1.04 3.68 -1 3 C-0.67 2.01 -0.34 1.02 0 0 Z " fill="#D2F2EE" transform="translate(1740,1488)"/>
<path d="M0 0 C1.31602523 0.61754259 2.62773556 1.24428742 3.9375 1.875 C4.66839844 2.22304687 5.39929687 2.57109375 6.15234375 2.9296875 C8 4 8 4 9 6 C5.21213403 5.4739075 2.82847776 4.61896089 0 2 C0 1.34 0 0.68 0 0 Z " fill="#D1EFED" transform="translate(1401,1485)"/>
<path d="M0 0 C1.65 1.32 3.3 2.64 5 4 C4.67 4.99 4.34 5.98 4 7 C3.01 6.34 2.02 5.68 1 5 C1 4.34 1 3.68 1 3 C0.01 3 -0.98 3 -2 3 C-1 1 -1 1 0 0 Z " fill="#D7F2EF" transform="translate(1939,1486)"/>
<path d="M0 0 C1.32 1.32 2.64 2.64 4 4 C3.01 4.33 2.02 4.66 1 5 C0.67 5.66 0.34 6.32 0 7 C-1.32 5.35 -2.64 3.7 -4 2 C-2.68 2 -1.36 2 0 2 C0 1.34 0 0.68 0 0 Z " fill="#C9E9E7" transform="translate(984,1337)"/>
<path d="M0 0 C1.32 1.32 2.64 2.64 4 4 C3.34 5.32 2.68 6.64 2 8 C1.34 7.67 0.68 7.34 0 7 C0 6.01 0 5.02 0 4 C-0.66 3.34 -1.32 2.68 -2 2 C-1.34 2 -0.68 2 0 2 C0 1.34 0 0.68 0 0 Z " fill="#D3F3F0" transform="translate(1122,1301)"/>
<path d="M0 0 C1.35439668 2.70879335 1.06501451 5.00933268 1 8 C0.01 8 -0.98 8 -2 8 C-2.66 7.34 -3.32 6.68 -4 6 C-2.68 4.02 -1.36 2.04 0 0 Z " fill="#D0EFEB" transform="translate(742,1247)"/>
<path d="M0 0 C1.98 1.65 3.96 3.3 6 5 C5.01 5.66 4.02 6.32 3 7 C2.34 6.67 1.68 6.34 1 6 C0.375 2.9375 0.375 2.9375 0 0 Z " fill="#19617A" transform="translate(742,1753)"/>
<path d="M0 0 C0.66 0.33 1.32 0.66 2 1 C2 2.32 2 3.64 2 5 C2.66 5.33 3.32 5.66 4 6 C2.02 6.99 2.02 6.99 0 8 C-0.66 7.34 -1.32 6.68 -2 6 C-1.34 6 -0.68 6 0 6 C-0.2784375 5.071875 -0.2784375 5.071875 -0.5625 4.125 C-1 2 -1 2 0 0 Z " fill="#D7F4F1" transform="translate(1082,1730)"/>
<path d="M0 0 C0.33 0.66 0.66 1.32 1 2 C0.0625 4.625 0.0625 4.625 -1 7 C-3.475 6.01 -3.475 6.01 -6 5 C-5.195625 4.360625 -4.39125 3.72125 -3.5625 3.0625 C-1.7249496 1.59396498 -1.7249496 1.59396498 0 0 Z " fill="#CFF0EB" transform="translate(897,1688)"/>
<path d="M0 0 C-0.33 1.32 -0.66 2.64 -1 4 C-3.31 3.67 -5.62 3.34 -8 3 C-5.36657694 0.36657694 -3.69534435 0 0 0 Z " fill="#115B74" transform="translate(2236,1680)"/>
<path d="M0 0 C3.875 4.75 3.875 4.75 5 7 C3.68 7.33 2.36 7.66 1 8 C0.67 7.34 0.34 6.68 0 6 C0.33 5.01 0.66 4.02 1 3 C0.34 3 -0.32 3 -1 3 C-0.67 2.01 -0.34 1.02 0 0 Z " fill="#145B74" transform="translate(1964,1656)"/>
<path d="M0 0 C0.33 0.66 0.66 1.32 1 2 C0.0625 4.125 0.0625 4.125 -1 6 C-2.65 6 -4.3 6 -6 6 C-4 4 -2 2 0 0 Z " fill="#CAEBE9" transform="translate(1005,1609)"/>
<path d="M0 0 C1.61949011 2.57213134 2.04408751 3.67669159 1.625 6.75 C1.41875 7.4925 1.2125 8.235 1 9 C-1.35953094 6.64046906 -1.49141413 5.22104383 -2 2 C-1.34 2 -0.68 2 0 2 C0 1.34 0 0.68 0 0 Z " fill="#D4F4F0" transform="translate(2134,1557)"/>
<path d="M0 0 C0.99 0 1.98 0 3 0 C2.67 3.3 2.34 6.6 2 10 C1.67 10 1.34 10 1 10 C1 7.69 1 5.38 1 3 C0.34 3 -0.32 3 -1 3 C-0.67 2.01 -0.34 1.02 0 0 Z " fill="#C7EAE8" transform="translate(1180,1556)"/>
<path d="M0 0 C0.66 1.32 1.32 2.64 2 4 C1.01 4.99 0.02 5.98 -1 7 C-1.99 5.68 -2.98 4.36 -4 3 C-2.68 2.01 -1.36 1.02 0 0 Z " fill="#115C74" transform="translate(1526,1482)"/>
<path d="M0 0 C0.99 0.33 1.98 0.66 3 1 C2.34 1 1.68 1 1 1 C1 1.66 1 2.32 1 3 C1.66 3.33 2.32 3.66 3 4 C1.02 4.33 -0.96 4.66 -3 5 C-3.33 3.68 -3.66 2.36 -4 1 C-3.01 1.33 -2.02 1.66 -1 2 C-0.67 1.34 -0.34 0.68 0 0 Z " fill="#C9EBE6" transform="translate(1029,1394)"/>
<path d="M0 0 C1.5625 1.6875 1.5625 1.6875 3 4 C2.6875 6.75 2.6875 6.75 2 9 C1.34 9 0.68 9 0 9 C-1.125 2.25 -1.125 2.25 0 0 Z " fill="#CEF0EC" transform="translate(868,1380)"/>
<path d="M0 0 C0.99 0.33 1.98 0.66 3 1 C1.35 2.98 -0.3 4.96 -2 7 C-2.33 5.68 -2.66 4.36 -3 3 C-2.01 2.67 -1.02 2.34 0 2 C0 1.34 0 0.68 0 0 Z " fill="#CFEDEA" transform="translate(1121,1697)"/>
<path d="M0 0 C0.66 0.33 1.32 0.66 2 1 C0.75023244 4.65316671 0.32901247 5.78065836 -3 8 C-3.66 7.34 -4.32 6.68 -5 6 C-4.360625 5.566875 -3.72125 5.13375 -3.0625 4.6875 C-0.73253997 3.08760823 -0.73253997 3.08760823 0 0 Z " fill="#CDEDE9" transform="translate(2218,1628)"/>
<path d="M0 0 C0.99 0.33 1.98 0.66 3 1 C2.67 2.65 2.34 4.3 2 6 C0.68 6.33 -0.64 6.66 -2 7 C-1.34 4.69 -0.68 2.38 0 0 Z " fill="#105A73" transform="translate(1163,1624)"/>
<path d="M0 0 C0.33 0.66 0.66 1.32 1 2 C1.99 2 2.98 2 4 2 C3.67 2.66 3.34 3.32 3 4 C0.67843403 4.40729228 -1.6568787 4.74438677 -4 5 C-2.68 3.35 -1.36 1.7 0 0 Z " fill="#D0EEEB" transform="translate(1019,1594)"/>
<path d="M0 0 C0.66 0.99 1.32 1.98 2 3 C1.34 3.66 0.68 4.32 0 5 C-2.625 4.625 -2.625 4.625 -5 4 C-3.35 2.68 -1.7 1.36 0 0 Z " fill="#D8F2EF" transform="translate(1709,1562)"/>
<path d="M0 0 C0.66 0.66 1.32 1.32 2 2 C1.625 4.625 1.625 4.625 1 7 C0.34 7 -0.32 7 -1 7 C-1.625 4.625 -1.625 4.625 -2 2 C-1.34 1.34 -0.68 0.68 0 0 Z " fill="#D9F8F1" transform="translate(2132,1551)"/>
<path d="M0 0 C0.66 1.32 1.32 2.64 2 4 C1.01 4.33 0.02 4.66 -1 5 C-1.33 5.66 -1.66 6.32 -2 7 C-2.66 5.68 -3.32 4.36 -4 3 C-3.01 3 -2.02 3 -1 3 C-0.67 2.01 -0.34 1.02 0 0 Z " fill="#D5F4F0" transform="translate(1390,1542)"/>
<path d="M0 0 C-0.33 0.99 -0.66 1.98 -1 3 C-3.97 3 -6.94 3 -10 3 C-4 0 -4 0 0 0 Z " fill="#C6E9E7" transform="translate(863,1325)"/>
<path d="M0 0 C0.66 0.33 1.32 0.66 2 1 C2.33 1.99 2.66 2.98 3 4 C1.02 4.66 -0.96 5.32 -3 6 C-3.33 5.34 -3.66 4.68 -4 4 C-2.68 3.67 -1.36 3.34 0 3 C0 2.01 0 1.02 0 0 Z " fill="#D3F3EF" transform="translate(1046,1754)"/>
<path d="M0 0 C0.99 0.33 1.98 0.66 3 1 C3.33 1.99 3.66 2.98 4 4 C3.34 4.66 2.68 5.32 2 6 C1.01 5.01 0.02 4.02 -1 3 C-0.67 2.01 -0.34 1.02 0 0 Z " fill="#D7F6F3" transform="translate(859,1688)"/>
<path d="M0 0 C0.66 0.33 1.32 0.66 2 1 C1.67 1.99 1.34 2.98 1 4 C-1.64 3.67 -4.28 3.34 -7 3 C-4.66785852 1.79371992 -2.50357861 0.8345262 0 0 Z " fill="#1C657C" transform="translate(1588,1683)"/>
<path d="M0 0 C0.66 0.33 1.32 0.66 2 1 C0.8125 2.5625 0.8125 2.5625 -1 4 C-3.6875 3.6875 -3.6875 3.6875 -6 3 C-3 1 -3 1 0 0 Z " fill="#246B82" transform="translate(1385,1681)"/>
<path d="M0 0 C1.32 0.33 2.64 0.66 4 1 C3.67 2.65 3.34 4.3 3 6 C1.5 4.6875 1.5 4.6875 0 3 C0 2.01 0 1.02 0 0 Z " fill="#D9F6F2" transform="translate(1619,1675)"/>
<path d="M0 0 C0 3 0 3 -2.5 5.6875 C-3.325 6.450625 -4.15 7.21375 -5 8 C-5 7.34 -5 6.68 -5 6 C-5.66 5.67 -6.32 5.34 -7 5 C-4.69 3.35 -2.38 1.7 0 0 Z " fill="#0C5772" transform="translate(2249,1670)"/>
<path d="M0 0 C2.4375 0.8125 2.4375 0.8125 5 2 C5.33 2.99 5.66 3.98 6 5 C3 5 3 5 1.3125 3.625 C0 2 0 2 0 0 Z " fill="#CFEDEA" transform="translate(2123,1662)"/>
<path d="M0 0 C0 0.66 0 1.32 0 2 C-0.99 2 -1.98 2 -3 2 C-3.33 2.99 -3.66 3.98 -4 5 C-5.32 4.67 -6.64 4.34 -8 4 C-2.7826087 0 -2.7826087 0 0 0 Z " fill="#C4E7E4" transform="translate(948,1648)"/>
<path d="M0 0 C2.97 0.495 2.97 0.495 6 1 C5.34 1.66 4.68 2.32 4 3 C4 3.99 4 4.98 4 6 C3.34 6 2.68 6 2 6 C2 5.34 2 4.68 2 4 C1.34 3.67 0.68 3.34 0 3 C0 2.01 0 1.02 0 0 Z " fill="#CFF1ED" transform="translate(2180,1633)"/>
<path d="M0 0 C0.33 0.99 0.66 1.98 1 3 C0.67 3.66 0.34 4.32 0 5 C0.99 4.67 1.98 4.34 3 4 C2.67 5.32 2.34 6.64 2 8 C2 7.34 2 6.68 2 6 C0.68 6.33 -0.64 6.66 -2 7 C-1.125 2.25 -1.125 2.25 0 0 Z " fill="#CAEBE9" transform="translate(1963,1623)"/>
<path d="M0 0 C2.475 0.99 2.475 0.99 5 2 C4.38125 2.28875 3.7625 2.5775 3.125 2.875 C0.86674235 3.93720042 0.86674235 3.93720042 -1 6 C-1 5.34 -1 4.68 -1 4 C-1.66 3.67 -2.32 3.34 -3 3 C-2.01 2.01 -1.02 1.02 0 0 Z " fill="#C9E9E6" transform="translate(1968,1617)"/>
<path d="M0 0 C1.32 0 2.64 0 4 0 C4.33 0.99 4.66 1.98 5 3 C3.02 3.99 3.02 3.99 1 5 C0.67 3.35 0.34 1.7 0 0 Z " fill="#D6F3EF" transform="translate(1739,1601)"/>
<path d="M0 0 C0.66 0.33 1.32 0.66 2 1 C2 2.65 2 4.3 2 6 C0.02 6.99 0.02 6.99 -2 8 C-1.34 5.36 -0.68 2.72 0 0 Z " fill="#BFE1E1" transform="translate(1394,1596)"/>
<path d="M0 0 C0.98120464 3.05263664 0.98120464 4.94736336 0 8 C-1.32 6.02 -2.64 4.04 -4 2 C-2.68 1.34 -1.36 0.68 0 0 Z " fill="#115974" transform="translate(2262,1578)"/>
<path d="M0 0 C0.33 0.66 0.66 1.32 1 2 C1.99 2.33 2.98 2.66 4 3 C3.34 3 2.68 3 2 3 C1.67 3.66 1.34 4.32 1 5 C0.34 4.67 -0.32 4.34 -1 4 C-1 4.99 -1 5.98 -1 7 C-1.66 7 -2.32 7 -3 7 C-1.125 2.25 -1.125 2.25 0 0 Z " fill="#C6E8E6" transform="translate(2139,1501)"/>
<path d="M0 0 C0.66 0 1.32 0 2 0 C3.0625 2.375 3.0625 2.375 4 5 C3.67 5.66 3.34 6.32 3 7 C2.01 6.67 1.02 6.34 0 6 C0 4.02 0 2.04 0 0 Z " fill="#D7F2ED" transform="translate(2098,1489)"/>
<path d="M0 0 C0.66 0.33 1.32 0.66 2 1 C2 1.99 2 2.98 2 4 C0.02 4.66 -1.96 5.32 -4 6 C-2.84826645 3.53199953 -1.95216435 1.95216435 0 0 Z " fill="#CEEBEA" transform="translate(1792,1484)"/>
<path d="M0 0 C0.66 0.99 1.32 1.98 2 3 C-0.375 4.0625 -0.375 4.0625 -3 5 C-3.66 4.67 -4.32 4.34 -5 4 C-5 3.34 -5 2.68 -5 2 C-3.35 1.34 -1.7 0.68 0 0 Z " fill="#165E76" transform="translate(888,1339)"/>
</svg>
